<?xml version="1.0" encoding="iso-8859-1"?>
<!-- Generator: Adobe Illustrator 21.1.0, SVG Export Plug-In . SVG Version: 6.00 Build 0)  -->
<svg version="1.1" id="&#x30EC;&#x30A4;&#x30E4;&#x30FC;_1"
	 xmlns="http://www.w3.org/2000/svg" xmlns:xlink="http://www.w3.org/1999/xlink" x="0px" y="0px" viewBox="0 0 40 80"
	 style="enable-background:new 0 0 40 80;" xml:space="preserve">
<g>
	
		<rect x="0" y="0" transform="matrix(-1 -8.981273e-11 8.981273e-11 -1 40 80)" style="fill-rule:evenodd;clip-rule:evenodd;fill:#0F69CC;" width="40" height="80"/>
	<path style="fill-rule:evenodd;clip-rule:evenodd;fill:#FFFFFF;" d="M10.644,41.087l16.729,22.286
		c0.251,0.334,0.612,0.525,0.992,0.525c0.384,0,0.736-0.187,0.991-0.526c0.222-0.297,0.345-0.683,0.345-1.086
		c0-0.404-0.123-0.791-0.345-1.088L13.443,40l15.913-21.197c0.222-0.298,0.345-0.684,0.345-1.088s-0.123-0.79-0.345-1.086
		c-0.254-0.34-0.606-0.526-0.991-0.526c-0.379,0-0.74,0.191-0.992,0.525L10.644,38.914C10.422,39.21,10.3,39.596,10.3,40
		C10.3,40.404,10.422,40.79,10.644,41.087z"/>
</g>
</svg>
