<?xml version="1.0" encoding="iso-8859-1"?>
<!-- Generator: Adobe Illustrator 20.1.0, SVG Export Plug-In . SVG Version: 6.00 Build 0)  -->
<svg version="1.1" id="&#x30EC;&#x30A4;&#x30E4;&#x30FC;_1"
	 xmlns="http://www.w3.org/2000/svg" xmlns:xlink="http://www.w3.org/1999/xlink" x="0px" y="0px" viewBox="0 0 50 62.529"
	 style="enable-background:new 0 0 50 62.529;" xml:space="preserve">
<g id="&#x30B7;&#x30A7;&#x30A4;&#x30D7;_5">
	<g>
		<path style="fill:#FFFFFF;" d="M34.788,26.1c-0.076-0.116-0.219-0.291-0.317-0.39l-8.447-8.496
			c-0.098-0.098-0.272-0.242-0.387-0.319c0,0-0.318-0.213-0.638-0.213c-0.32,0-0.638,0.213-0.638,0.213
			c-0.115,0.077-0.289,0.221-0.387,0.319l-8.447,8.496c-0.098,0.099-0.24,0.274-0.317,0.39c0,0-0.212,0.32-0.212,0.642
			c0,0.322,0.125,0.624,0.351,0.852c0.226,0.227,0.527,0.353,0.847,0.353c0.32,0,0.638-0.213,0.638-0.213
			c0.115-0.077,0.289-0.221,0.387-0.319l6.406-6.443c0.098-0.099,0.178-0.065,0.178,0.074v14.501c0,0.139,0.046,0.357,0.103,0.483
			c0,0,0.433,0.97,1.091,0.97s1.091-0.97,1.091-0.97c0.057-0.127,0.103-0.344,0.103-0.483V21.045c0-0.139,0.08-0.172,0.178-0.074
			l6.405,6.442c0.098,0.099,0.272,0.242,0.387,0.319c0,0,0.318,0.213,0.639,0.213c0.32,0,0.621-0.125,0.847-0.353
			C34.875,27.365,35,27.063,35,26.741C35,26.419,34.788,26.1,34.788,26.1z M16.455,15.023h17.09c0.138,0,0.251-0.113,0.251-0.253
			v-1.517c0-0.139-0.113-0.253-0.251-0.253h-17.09c-0.138,0-0.251,0.114-0.251,0.253v1.517
			C16.203,14.909,16.317,15.023,16.455,15.023z"/>
	</g>
</g>
<path style="fill:#FFFFFF;" d="M25,50C11.215,50,0,38.785,0,25S11.215,0,25,0s25,11.215,25,25S38.785,50,25,50z M25,2
	C12.318,2,2,12.318,2,25c0,12.683,10.318,23,23,23c12.683,0,23-10.317,23-23C48,12.318,37.683,2,25,2z"/>
<g>
	<path style="fill:#FFFFFF;" d="M0.104,54.234h2.674c1.804,0,3.19,0.628,3.19,2.553c0,1.859-1.397,2.695-3.146,2.695h-1.09v2.894
		H0.104V54.234z M2.711,58.194c1.122,0,1.661-0.473,1.661-1.408c0-0.946-0.594-1.265-1.716-1.265H1.731v2.673H2.711z"/>
	<path style="fill:#FFFFFF;" d="M10.9,60.285h-2.64l-0.572,2.09h-1.65l2.607-8.142h1.914l2.618,8.142h-1.705L10.9,60.285z
		 M10.549,59.02l-0.242-0.892c-0.253-0.847-0.473-1.782-0.715-2.662H9.548c-0.209,0.892-0.451,1.815-0.693,2.662L8.612,59.02H10.549
		z"/>
	<path style="fill:#FFFFFF;" d="M13.617,58.338c0-2.685,1.738-4.258,3.906-4.258c1.177,0,1.991,0.506,2.519,1.045l-0.869,1.034
		c-0.396-0.385-0.857-0.683-1.595-0.683c-1.354,0-2.3,1.057-2.3,2.806c0,1.771,0.814,2.839,2.41,2.839
		c0.396,0,0.792-0.11,1.022-0.309v-1.605h-1.44v-1.332h2.893v3.675c-0.55,0.539-1.507,0.979-2.64,0.979
		C15.301,62.529,13.617,61.055,13.617,58.338z"/>
	<path style="fill:#FFFFFF;" d="M21.962,54.234h4.995v1.354H23.59v1.882h2.861v1.363H23.59v2.179h3.488v1.364h-5.116V54.234z"/>
	<path style="fill:#FFFFFF;" d="M30.424,55.587h-2.288v-1.354h6.227v1.354h-2.31v6.788h-1.629V55.587z"/>
	<path style="fill:#FFFFFF;" d="M35.144,58.272c0-2.651,1.485-4.191,3.642-4.191s3.642,1.551,3.642,4.191s-1.485,4.258-3.642,4.258
		S35.144,60.912,35.144,58.272z M40.766,58.272c0-1.749-0.771-2.795-1.98-2.795s-1.98,1.046-1.98,2.795
		c0,1.738,0.771,2.85,1.98,2.85S40.766,60.01,40.766,58.272z"/>
	<path style="fill:#FFFFFF;" d="M44.032,54.234h2.674c1.804,0,3.19,0.628,3.19,2.553c0,1.859-1.397,2.695-3.146,2.695h-1.09v2.894
		h-1.628V54.234z M46.64,58.194c1.122,0,1.661-0.473,1.661-1.408c0-0.946-0.594-1.265-1.716-1.265H45.66v2.673H46.64z"/>
</g>
</svg>
