<?xml version="1.0" encoding="utf-8"?>
<!-- Generator: Adobe Illustrator 21.0.2, SVG Export Plug-In . SVG Version: 6.00 Build 0)  -->
<svg version="1.1" id="レイヤー_1" xmlns="http://www.w3.org/2000/svg" xmlns:xlink="http://www.w3.org/1999/xlink" x="0px"
	 y="0px" viewBox="0 0 400 100" style="enable-background:new 0 0 400 100;" xml:space="preserve">
<style type="text/css">
	.st0{clip-path:url(#SVGID_2_);fill:#231815;}
	.st1{clip-path:url(#SVGID_2_);fill:#C6000B;}
	.st2{clip-path:url(#SVGID_2_);fill:#D2D3D4;}
	.st3{clip-path:url(#SVGID_4_);fill:#231815;}
	.st4{clip-path:url(#SVGID_4_);fill:#C6000B;}
	.st5{clip-path:url(#SVGID_4_);fill:#D2D3D4;}
	.st6{clip-path:url(#SVGID_6_);fill:#231815;}
	.st7{clip-path:url(#SVGID_6_);fill:#C6000B;}
	.st8{clip-path:url(#SVGID_6_);fill:#D2D3D4;}
</style>
<g>
	<defs>
		<rect id="SVGID_1_" x="7.1" y="25.1" width="42.3" height="47.5"/>
	</defs>
	<clipPath id="SVGID_2_">
		<use xlink:href="#SVGID_1_"  style="overflow:visible;"/>
	</clipPath>
	<path class="st0" d="M-2.3,6.2V6h1.4l0.1,0l0.1,0.1c0,0.8-0.4,1.3-1.3,1.5l-0.2-0.2C-1.4,7.2-1,6.8-0.9,6.2H-2.3z M-0.9,6
		C-0.9,5.9-1,5.8-1.1,5.8L-1,5.7c0.1,0.1,0.2,0.1,0.2,0.2L-0.9,6z M-0.5,6c-0.1-0.1-0.2-0.2-0.3-0.3l0.1-0.1
		c0.1,0.1,0.2,0.2,0.3,0.3L-0.5,6z"/>
	<path class="st0" d="M0.3,7.6c0.6-0.1,0.9-0.5,1-0.9H0V6.4h1.4l0.1,0l0.2,0.1c0,0,0,0.1,0,0.1c-0.1,0.6-0.4,1-1,1.2L0.3,7.6z
		 M1.4,6.1H0.1V5.9h1.2V6.1z"/>
	<path class="st0" d="M4.1,6.5c-0.3,0.7-0.8,1-1.6,1c0,0.1-0.1,0.1-0.1,0L2.3,7.3c0.8,0,1.3-0.3,1.6-1L4.1,6.5z M2.3,6.1L2.5,6
		C2.6,6,2.8,6.2,3,6.3L2.8,6.5C2.6,6.4,2.5,6.2,2.3,6.1"/>
	<path class="st0" d="M6.1,7C5.7,6.9,5.5,6.8,5.3,6.7v0.9H5.1V5.8h0.2c0.1,0,0.1,0,0,0.1v0.6c0.3,0.1,0.6,0.2,0.9,0.3L6.1,7z M6,6.2
		C5.9,6.1,5.8,6,5.7,5.9l0.1-0.1C5.9,5.9,6,6,6.1,6.1L6,6.2z M6.2,6.1C6.2,6,6.1,5.9,6,5.8l0.1-0.1C6.2,5.8,6.3,5.9,6.4,6L6.2,6.1z"
		/>
	<path class="st0" d="M8.4,7.4H8.2V7.3h-1v0.1H7V6h1.4V7.4z M7.2,7.1h1V6.2h-1V7.1z"/>
	<path class="st0" d="M10.6,6.2v1.3h-0.2V7.4H9.2V7.2h1.2V6.4H9.2V6.2H10.6z M10.6,6.1c-0.1-0.1-0.2-0.2-0.3-0.3l0.1-0.1
		c0.1,0.1,0.2,0.2,0.3,0.3L10.6,6.1z M10.9,6c-0.1-0.1-0.2-0.2-0.3-0.3l0.1-0.1c0.1,0.1,0.2,0.2,0.3,0.3L10.9,6z"/>
	<path class="st1" d="M11.8,36.8v31.7h4.6v-3.4c1.1,0,1.2-0.2,1.2-0.9V44.7h2.9v18.7c0,0,0.1,2.7-0.3,3.7c-0.3,0.7-0.6,1.1-1.5,1.4
		h24.7V36.8H11.8z M20.5,43.4h-2.9v-4.1h2.9V43.4z M29.1,48.9v7.2h-3.9v6.1c0,1,1,1.1,1-0.2v-4.4h2.9v4.3c0,0.5,0,4.7-3.5,4.7
		c-3.1,0-3.3-3.9-3.3-4.4V48.1c0-0.3,0.5-4.1,3.3-4.1C29.2,44,29.1,48.6,29.1,48.9 M37.7,51.9h-3c0,0,0-3,0-3.3
		c0-1.1-1.1-1.3-1.1,0.2c0,0.3,0,1,0,1.4c0,1.9,1.6,3.2,2,3.7c1.5,1.4,2,3.4,2,5.6V62c0,2.3-1.2,4.6-3.5,4.6c-3,0-3.5-3.7-3.5-4.4
		c0-0.5,0-4.2,0-4.2h3v3.8c0,1.8,1.1,1.2,1.1,0.4v-2.7c0-1-0.7-1.9-1.1-2.4c-0.4-0.5-3-2.3-3-5.9c0-0.4,0-2.1,0-2.6
		c0-0.7,0.5-4.6,3.5-4.6c3.3,0,3.6,4.1,3.6,4.6V51.9z"/>
	<path class="st1" d="M25.7,47.7c-0.4,0-0.5,0.5-0.5,0.9v4.2h1v-4.2C26.2,48.3,26.1,47.7,25.7,47.7"/>
	<polygon class="st2" points="35.3,27.7 19.9,27.7 27.6,41.2 	"/>
	<path class="st0" d="M56.8,41.3c-1.1-0.6-2.3-1-2.7-1.1l0.5-1.1c1.2,0.3,1.9,0.6,2.7,1L56.8,41.3z M54.7,43.4
		c3.3-0.3,5.1-1.1,6.4-5.1l1.2,0.6c-1.4,3.9-3.1,5.4-7.2,5.9L54.7,43.4z M57.6,39c-0.6-0.3-1.4-0.7-2.7-1l0.5-1.1
		c1.6,0.4,2.4,0.8,2.8,1L57.6,39z M60.5,38c0-0.2-0.2-0.9-0.4-1.5l0.8-0.1c0.2,0.4,0.3,0.7,0.5,1.5L60.5,38z M61.8,37.8
		c0-0.1-0.2-0.8-0.5-1.4l0.8-0.2c0.3,0.6,0.4,1.2,0.5,1.4L61.8,37.8z"/>
	<path class="st0" d="M65.2,38.4l1.2-0.1l0.2,1.5l3.8-0.5c0,1.6-0.5,2.8-1.9,3.8l-0.8-0.8c0.8-0.5,1.1-0.9,1.3-1.7l-2.2,0.3l0.7,4.1
		l-1.2,0.2L65.6,41l-1.8,0.3l-0.2-1.1l1.8-0.2L65.2,38.4z"/>
	<path class="st0" d="M71,43.8c1.5-1.7,1.9-4.7,2-6.7l1.3,0.1c-0.3,4.7-1.4,6.6-2.2,7.5L71,43.8z M77.5,37.1
		c0.3,3.2,1.4,5.5,2.3,6.8l-1.1,0.9c-1.5-2-2.1-4.9-2.4-7.5L77.5,37.1z M80.1,37.3c0,0.6-0.4,1-1,1c-0.6,0-1-0.5-1-1
		c0-0.6,0.5-1,1-1C79.6,36.3,80.1,36.7,80.1,37.3 M78.6,37.3c0,0.2,0.2,0.4,0.4,0.4c0.2,0,0.4-0.2,0.4-0.4c0-0.2-0.2-0.4-0.4-0.4
		C78.9,36.8,78.6,37,78.6,37.3"/>
	<path class="st0" d="M83.9,39.7c-0.2-0.1-1.5-1-2.9-1.4l0.6-1.1c1.4,0.4,2.4,0.9,3,1.3L83.9,39.7z M81.2,43.4
		c3.1-0.2,5.5-1.2,6.8-5.6l1.2,0.6c-1.5,4.5-3.9,5.9-7.6,6.4L81.2,43.4z"/>
	<polygon class="st0" points="97.7,37.5 97.7,38.7 94.8,38.7 94.8,43 98.2,43 98.2,44.3 90.2,44.3 90.2,43 93.5,43 93.5,38.7 
		90.7,38.7 90.7,37.5 	"/>
	<path class="st0" d="M101.3,43.4c1.6-0.2,3.8-0.8,5-4.4l1.2,0.6c-0.9,2.6-2.5,5.1-7.5,5.2v-8h1.3V43.4z"/>
	<path class="st0" d="M108.1,41c0.3-0.4,1.4-1.7,1.9-2.2c0.5-0.6,0.9-1.1,1.5-1.1c0.4,0,0.9,0.2,1.6,1l4,4.1l-1,1.2l-3.9-4.2
		c-0.3-0.3-0.5-0.5-0.7-0.5c-0.2,0-0.3,0.1-0.5,0.3c-0.4,0.4-1.8,2.3-2,2.6L108.1,41z M114.9,39c-0.2-0.4-0.6-0.9-0.9-1.4l0.7-0.4
		c0.4,0.5,0.7,0.8,1,1.3L114.9,39z M116.1,38.3c-0.3-0.5-0.6-0.9-1-1.3l0.7-0.4c0.5,0.5,0.9,1.1,1,1.2L116.1,38.3z"/>
	<rect x="117.6" y="40.1" class="st0" width="8.4" height="1.3"/>
	<path class="st0" d="M130.6,39.9c0.4,0.2,1.2,0.5,2.1,1.2c0.7-0.9,0.9-1.9,1-2.2h-3.1c-1.1,1.4-2.1,2-2.5,2.3l-0.8-0.9
		c1.7-0.9,2.5-2,3.2-3.7l1.4,0.2c-0.1,0.3-0.2,0.6-0.4,1h3.9c-0.3,2.2-1.4,6-6.7,7.3l-0.7-1.1c0.6-0.1,2.2-0.4,3.9-1.8
		c-0.9-0.8-1.6-1.1-2-1.3L130.6,39.9z"/>
	<rect x="136.2" y="40.1" class="st0" width="8.4" height="1.3"/>
	<path class="st0" d="M151.1,36.7h1.3v1.8h1.6v1.2h-1.6v0.8c0,3.1-1.8,4.1-4.5,4.5l-0.5-1.2c2.7-0.3,3.7-1.2,3.7-3.3v-0.8h-2.8v2.4
		H147v-2.4h-1.5v-1.2h1.5v-1.7h1.3v1.7h2.8V36.7z"/>
	<rect x="154.9" y="40.1" class="st0" width="8.4" height="1.3"/>
	<path class="st0" d="M166.3,37v2.7c1.9-0.4,3.1-1,4.2-1.6l0.2,0.4l0.2-0.1l0.5,0.8c-1.9,0.9-3.5,1.4-5.1,1.7v1.9
		c0,0.4,0.2,0.5,0.7,0.5h3c0.6,0,1.4-0.1,2-0.2l0.1,1.3c-0.3,0-0.8,0.1-1.9,0.1h-3.3c-1.4,0-1.8-0.5-1.8-1.4V37H166.3z M170.9,38.2
		c-0.3-0.8-0.4-1.1-0.6-1.5l0.7-0.2c0.3,0.5,0.5,1.1,0.6,1.5L170.9,38.2z M172.2,38c-0.1-0.3-0.3-0.9-0.6-1.5l0.7-0.2
		c0.3,0.5,0.5,1.2,0.6,1.5L172.2,38z"/>
	<path class="st0" d="M173.6,43.9c2.1-0.8,4.3-2.7,5.3-5.5h-4.8v-1.2h6.5c-0.1,0.6-0.4,2-1.7,3.9c1.2,0.9,2.2,1.8,3.2,2.7l-1.1,1.1
		c-0.9-1-1.8-2-2.8-2.8c-1.1,1.2-2.3,2.2-3.8,2.8L173.6,43.9z"/>
	<path class="st0" d="M183.2,43.7c1.1-1.1,1.3-2.5,1.4-3.4l1.2,0.1c-0.3,2.7-1.2,3.7-1.6,4.2L183.2,43.7z M188.1,36.7v1.5h3.3v1.2
		h-3.3v5.5h-1.3v-5.5h-3.3v-1.2h3.3v-1.5H188.1z M190.2,40.2c0.3,1.8,0.7,2.6,1.4,3.5l-1.1,0.8c-0.8-0.9-1.3-2-1.5-4.1L190.2,40.2z"
		/>
	<rect x="192.3" y="40.1" class="st0" width="8.4" height="1.3"/>
	<path class="st0" d="M203.9,39.4c0,1.1-0.1,2.1-0.3,3c-0.2,1.1-0.7,2-1.5,2.7l-1-0.9c0.5-0.5,1.5-1.5,1.5-4.7v-2.5h1.3V39.4z
		 M206.5,43.3c0.6-0.2,1.2-0.5,1.7-1.4c0.2-0.4,0.6-1,0.8-2.1l1.2,0.5c-0.5,2.6-2.3,4.5-4.9,4.5v-8.1h1.3V43.3z"/>
	<path class="st0" d="M219.2,39.4v1.2h-3.1l0,0.2c-0.2,3.1-2.2,3.8-4,4.1l-0.5-1.1c1.9-0.3,3.1-0.7,3.2-3l0-0.2h-3.6v-1.2H219.2z
		 M217.6,37c0.1,0.4,0.1,0.5,0.1,0.9v0.3h-5.9V37H217.6z M218,37.8c0-0.4-0.1-0.8-0.3-1.4l0.7-0.1c0.2,0.6,0.2,0.8,0.3,1.4L218,37.8
		z M219.1,37.7c-0.2-0.9-0.2-1.2-0.3-1.5l0.7-0.1c0.2,0.5,0.2,0.8,0.4,1.4L219.1,37.7z"/>
	<path class="st0" d="M224.6,45h-1.2v-3.2c-1.2,0.7-2,1-2.7,1.2l-0.5-1c3.3-1.1,5-2.9,5.6-3.8l1,0.8c-0.3,0.3-1,1.1-2.2,2V45z"/>
	<path class="st0" d="M231.3,39.7c-0.2-0.1-1.5-1-2.9-1.4l0.6-1.1c1.4,0.4,2.4,0.9,3,1.3L231.3,39.7z M228.5,43.4
		c3.1-0.2,5.5-1.2,6.8-5.6l1.2,0.6c-1.5,4.5-3.9,5.9-7.6,6.4L228.5,43.4z"/>
	<path class="st0" d="M237.4,40.2c1.6-0.8,2.5-2.2,3-3.6l1.4,0.2c-0.2,0.4-0.3,0.8-0.5,1.2h2.4l0.1,0.3l1.5-0.3
		c-0.2,1.9-0.9,3.6-2.2,4.9c-1.3,1.3-2.9,1.7-4.5,2l-0.5-1.2c2.9-0.4,4.8-1.4,5.7-4.6h-3.2c-0.9,1.1-1.5,1.6-2.2,2L237.4,40.2z
		 M243.9,37.9c-0.2-0.9-0.3-1.1-0.4-1.4l0.8-0.2c0.1,0.2,0.3,0.5,0.5,1.4L243.9,37.9z M245.1,37.7c-0.1-0.3-0.2-0.9-0.5-1.4l0.8-0.2
		c0.3,0.6,0.4,1.1,0.5,1.3L245.1,37.7z"/>
	<path class="st0" d="M246.7,43.9c2.1-0.8,4.3-2.7,5.3-5.5h-4.8v-1.2h6.5c-0.1,0.6-0.4,2-1.7,3.9c1.2,0.9,2.2,1.8,3.2,2.7l-1.1,1.1
		c-0.9-1-1.8-2-2.8-2.8c-1.1,1.2-2.3,2.2-3.8,2.8L246.7,43.9z"/>
	<path class="st0" d="M260.6,38.8c-0.2,0.6-0.4,0.8-0.6,1.1l-1-0.7l0.1-0.1h-0.8v0.6c0.2,0.4,0.7,1.3,1.3,1.8l-0.7,1
		c-0.3-0.4-0.5-0.8-0.6-1.2v4h-1.1v-4c-0.3,1-0.6,1.5-1,2.1l-0.4-1.5c0.6-0.8,1-1.8,1.3-2.8h-1.1V38h1.3v-1.7h1.1V38h1v0.8
		c0.4-0.7,0.6-1.6,0.8-2.2l1.1,0.1c-0.1,0.3-0.1,0.5-0.2,0.9h0.6v-1.3h1.1v1.3h2v1.1h-2v1.1h2.1v1.1H263c0.6,1.1,1.2,1.7,1.9,2.3
		l-0.5,1.3c-0.3-0.2-1-0.8-1.8-2.4v3h-1.1v-3c-0.5,0.8-1,1.5-2,2.4l-0.7-1.1c0.8-0.5,1.6-1.3,2.3-2.5h-1.9v-1.1h2.3v-1.1H260.6z"/>
	<path class="st0" d="M265.7,43.8c0.5,0,1.1-0.1,1.9-0.2v-2.5h-1.7v-1.1h4.5v1.1h-1.6v2.4c0.8-0.1,1.4-0.2,1.9-0.3l0,1.1
		c-1.3,0.3-3.1,0.5-4.9,0.7L265.7,43.8z M273.5,37.8h1.1v1.1h-2.8c0.1,3.3,1,4.9,1.4,4.9c0.3,0,0.6-0.8,0.7-1.4l0.8,0.9
		c-0.1,0.4-0.4,1.9-1.4,1.9c-0.5,0-2.5-0.4-2.7-6.4h-4.9v-1.1h4.9c0-0.3,0-1.2,0-1.4h1.2c0,0.2,0,0.8,0,1.4h1.3
		c-0.3-0.4-0.7-0.6-1.1-0.9l0.8-0.6c0.5,0.3,0.9,0.6,1.3,1L273.5,37.8z"/>
	<path class="st0" d="M277.6,39.4c-0.8,0.5-1.2,0.7-1.5,0.8l-0.6-1.2c2.3-0.9,3.4-2,3.9-2.7h1.3c0.5,0.6,1.4,1.7,3.9,2.7l-0.6,1.2
		c-0.3-0.1-0.8-0.3-1.5-0.8v0.5h-5V39.4z M283.1,45.4c-0.1-0.2-0.2-0.3-0.4-0.7c-1.2,0.1-2.8,0.3-6.6,0.4l-0.2-1.2
		c0.1,0,1.1,0,1.4,0c0.3-0.5,0.6-1.3,0.8-2h-2.3v-1.1h8.4v1.1h-4.8c-0.4,0.8-0.6,1.4-0.9,2c0.3,0,1.9,0,3.4-0.2
		c-0.2-0.3-0.5-0.6-1-1.2l1-0.5c1.1,1.1,1.9,2.4,2.1,2.7L283.1,45.4z M281.8,38.9c-1-0.8-1.5-1.3-1.7-1.6c-0.5,0.6-1.1,1.2-1.7,1.6
		H281.8z"/>
	<path class="st0" d="M287.9,45.3h-1.2v-3.4c-0.5,0.4-0.8,0.7-1.1,0.8l-0.4-1.3c1.1-0.7,2-1.7,2.4-2.5h-2.3v-1.1h1.3v-1.4h1.2v1.4
		h1.1v1.1c-0.3,0.7-0.6,1.1-0.9,1.5c0.6,0.7,1,0.9,1.3,1.1l-0.6,1.1c-0.3-0.3-0.6-0.6-0.9-1V45.3z M291,36.3h1.2v2.5h2v1.2h-2v3.7
		h2.1V45h-5.6v-1.2h2.3v-3.7h-1.9v-1.2h1.9V36.3z"/>
	<path class="st1" d="M54.4,53.3h4.8v15.5c0,3.4-2,3.8-4.5,3.8c-0.7,0-1.5-0.1-2.2-0.1v-3.3c1.2,0,1.8-0.2,1.8-1V53.3z M54.4,48.6
		h4.8v3.6h-4.8V48.6z"/>
	<path class="st1" d="M68.3,67.8c-0.2-0.5-0.2-1-0.3-1.6h-0.1c-0.5,1.3-1.8,2-3.3,2c-2.9,0-4-1.8-4-4.3c0-2.7,0.9-4,4-4.7l1.9-0.5
		c1-0.2,1.4-0.7,1.4-1.6c0-0.9-0.4-1.3-1.2-1.3c-0.9,0-1.3,0.4-1.4,1.9h-4.2c0-4.2,3.4-4.9,5.6-4.9c3.4,0,5.8,0.9,5.8,4.7v7.1
		c0,1.3,0.1,2.4,0.5,3.1H68.3z M68,62.6v-1.7h-0.1c-0.3,0.4-0.9,0.4-1.6,0.7c-0.8,0.3-1,0.9-1,1.9c0,1,0.5,1.6,1.2,1.6
		C67.6,65,68,64.2,68,62.6"/>
	<path class="st1" d="M74.5,53.3h4.7v2h0.1c0.6-1.6,1.7-2.4,3.3-2.4c3.3,0,4.4,2.6,4.4,8c0,5.6-1.8,7.3-4.5,7.3c-1.4,0-2.6-0.5-3-2
		h-0.1v6.4h-4.8V53.3z M80.7,64.6c1.1,0,1.4-0.9,1.4-4.1c0-3.1-0.2-4-1.4-4c-1.1,0-1.3,0.9-1.3,4C79.4,63.7,79.6,64.6,80.7,64.6"/>
	<path class="st1" d="M95.6,67.8c-0.2-0.5-0.2-1-0.3-1.6h-0.1c-0.5,1.3-1.8,2-3.3,2c-2.9,0-4-1.8-4-4.3c0-2.7,0.9-4,4-4.7l1.9-0.5
		c1-0.2,1.4-0.7,1.4-1.6c0-0.9-0.4-1.3-1.2-1.3c-0.9,0-1.3,0.4-1.4,1.9h-4.2c0-4.2,3.4-4.9,5.6-4.9c3.4,0,5.8,0.9,5.8,4.7v7.1
		c0,1.3,0.1,2.4,0.5,3.1H95.6z M95.3,62.6v-1.7h-0.1c-0.3,0.4-0.9,0.4-1.6,0.7c-0.8,0.3-1,0.9-1,1.9c0,1,0.5,1.6,1.2,1.6
		C94.9,65,95.3,64.2,95.3,62.6"/>
	<path class="st1" d="M101.8,53.3h4.7v1.8h0.1c0.6-1.4,1.9-2.2,3.5-2.2c2.1,0,3.8,0.8,3.8,4v11H109v-9.6c0-1.2-0.3-1.7-1.2-1.7
		c-0.9,0-1.2,0.5-1.2,1.7v9.6h-4.8V53.3z"/>
	<path class="st1" d="M127.4,61.4v1.9c0,1.6,0.6,2,1.3,2c0.9,0,1.4-0.5,1.4-2.5h4.4c-0.1,3.5-1.7,5.5-5.7,5.5
		c-4.7,0-6.2-2.1-6.2-7.6c0-5.6,1.8-7.7,6.2-7.7c3.9,0,5.8,1.7,5.8,7v1.5H127.4z M130.1,58.1c0-1.5-0.3-2.2-1.3-2.2
		c-1,0-1.3,0.7-1.3,2.2v0.6h2.7V58.1z"/>
	<rect x="136.1" y="48.6" class="st1" width="4.8" height="19.2"/>
	<path class="st1" d="M147.3,61.4v1.9c0,1.6,0.6,2,1.3,2c0.9,0,1.4-0.5,1.4-2.5h4.4c-0.1,3.5-1.7,5.5-5.7,5.5
		c-4.7,0-6.2-2.1-6.2-7.6c0-5.6,1.8-7.7,6.2-7.7c3.9,0,5.8,1.7,5.8,7v1.5H147.3z M150,58.1c0-1.5-0.3-2.2-1.3-2.2
		c-1,0-1.3,0.7-1.3,2.2v0.6h2.7V58.1z"/>
	<polygon class="st1" points="154.7,53.3 159.7,53.3 161,63.8 161.1,63.8 162.4,53.3 167.4,53.3 163.9,67.8 158.2,67.8 	"/>
	<path class="st1" d="M175.1,67.8c-0.2-0.5-0.2-1-0.3-1.6h-0.1c-0.5,1.3-1.8,2-3.3,2c-2.9,0-4-1.8-4-4.3c0-2.7,0.9-4,4-4.7l1.9-0.5
		c1-0.2,1.4-0.7,1.4-1.6c0-0.9-0.4-1.3-1.2-1.3c-0.9,0-1.3,0.4-1.4,1.9H168c0-4.2,3.4-4.9,5.6-4.9c3.4,0,5.8,0.9,5.8,4.7v7.1
		c0,1.3,0.1,2.4,0.5,3.1H175.1z M174.8,62.6v-1.7h-0.1c-0.3,0.4-0.9,0.4-1.6,0.7c-0.8,0.3-1,0.9-1,1.9c0,1,0.5,1.6,1.2,1.6
		C174.4,65,174.8,64.2,174.8,62.6"/>
	<path class="st1" d="M180.5,53.3h1.6V49h4.8v4.3h1.9v3.3h-1.9v6.9c0,0.8,0.4,1.1,1.2,1.1h0.8v3.2c-0.9,0.1-1.8,0.2-2.6,0.2
		c-3,0-4.1-0.5-4.1-3.7v-7.7h-1.6V53.3z"/>
	<path class="st1" d="M195.8,68.2c-5.7,0-6.2-3.5-6.2-7.7c0-3.8,0.7-7.6,6.2-7.6c5.7,0,6.2,3.5,6.2,7.7
		C201.9,64.4,201.2,68.2,195.8,68.2 M195.8,65.1c1.1,0,1.3-0.9,1.3-4.5c0-3.7-0.2-4.5-1.3-4.5c-1.1,0-1.3,0.9-1.3,4.5
		C194.4,64.2,194.7,65.1,195.8,65.1"/>
	<path class="st1" d="M203.4,53.3h4.7v2.3h0.1c0.5-1.7,1.8-2.7,3.3-2.7h0.8v4.5c-0.4-0.1-0.8-0.1-1.2-0.1c-1.7,0-2.7,0.7-2.7,2.6
		v7.9h-4.8V53.3z"/>
	<path class="st1" d="M224,63.3c0,0.6,0.1,1.1,0.4,1.4c0.2,0.3,0.6,0.5,1,0.5c0.8,0,1.4-0.5,1.4-1.2c0-2.6-7-1-7-6.6
		c0-2.6,1.9-4.5,5.8-4.5c3.6,0,5.5,1.5,5.5,4.6h-4.2c0-1.2-0.5-1.6-1.3-1.6c-0.7,0-1.2,0.4-1.2,1.1c0,2.4,7,0.8,7,6.3
		c0,2.8-2.2,4.9-5.8,4.9c-4.1,0-5.7-1.7-5.7-4.9H224z"/>
	<path class="st1" d="M237.1,61.4v1.9c0,1.6,0.6,2,1.3,2c0.9,0,1.4-0.5,1.4-2.5h4.4c-0.1,3.5-1.7,5.5-5.7,5.5
		c-4.7,0-6.2-2.1-6.2-7.6c0-5.6,1.8-7.7,6.2-7.7c3.9,0,5.8,1.7,5.8,7v1.5H237.1z M239.8,58.1c0-1.5-0.3-2.2-1.3-2.2
		c-1,0-1.3,0.7-1.3,2.2v0.6h2.7V58.1z"/>
	<path class="st1" d="M245.7,53.3h4.7v2.3h0.1c0.5-1.7,1.8-2.7,3.3-2.7h0.8v4.5c-0.4-0.1-0.8-0.1-1.2-0.1c-1.7,0-2.7,0.7-2.7,2.6
		v7.9h-4.8V53.3z"/>
	<polygon class="st1" points="254.9,53.3 259.9,53.3 261.3,63.8 261.3,63.8 262.7,53.3 267.7,53.3 264.1,67.8 258.4,67.8 	"/>
	<path class="st1" d="M268.7,48.6h4.8v3.6h-4.8V48.6z M268.7,53.3h4.8v14.6h-4.8V53.3z"/>
	<path class="st1" d="M282.7,59c0-1.2-0.1-1.9-0.3-2.3c-0.2-0.5-0.6-0.6-1.1-0.6c-1.1,0-1.4,1-1.4,4.5c0,3.6,0.3,4.5,1.4,4.5
		c0.9,0,1.4-0.6,1.4-2.4v-0.9h4.4c0,2.3-0.3,3.9-1.3,4.9c-0.9,1-2.4,1.5-4.5,1.5c-3.7,0-6.3-1.1-6.3-7.4c0-6.9,2.9-7.9,6.5-7.9
		c4.3,0,5.5,2.4,5.5,6.1H282.7z"/>
	<path class="st1" d="M292.9,61.4v1.9c0,1.6,0.6,2,1.3,2c0.9,0,1.4-0.5,1.4-2.5h4.4c-0.1,3.5-1.7,5.5-5.7,5.5
		c-4.7,0-6.2-2.1-6.2-7.6c0-5.6,1.8-7.7,6.2-7.7c3.9,0,5.8,1.7,5.8,7v1.5H292.9z M295.6,58.1c0-1.5-0.3-2.2-1.3-2.2
		c-1,0-1.3,0.7-1.3,2.2v0.6h2.7V58.1z"/>
</g>
<g>
	<defs>
		<rect id="SVGID_3_" x="51" y="33.5" width="224.9" height="21"/>
	</defs>
	<clipPath id="SVGID_4_">
		<use xlink:href="#SVGID_3_"  style="overflow:visible;"/>
	</clipPath>
	<path class="st3" d="M5.4-4.4v-0.2h1.2l0.1,0l0.1,0.1c0,0.7-0.4,1.1-1.1,1.3L5.6-3.3c0.7-0.1,1-0.5,1-1.1H5.4z M6.7-4.6
		C6.6-4.6,6.5-4.7,6.5-4.8l0.1-0.1c0.1,0.1,0.1,0.1,0.2,0.2L6.7-4.6z M7-4.6C6.9-4.7,6.8-4.8,6.7-4.8l0.1-0.1C6.9-4.8,7-4.8,7-4.6
		L7-4.6z"/>
	<path class="st3" d="M7.7-3.2C8.3-3.3,8.5-3.6,8.6-4H7.4v-0.2h1.2l0.1,0l0.1,0.1c0,0,0,0.1,0,0.1C8.7-3.5,8.4-3.2,7.9-3L7.7-3.2z
		 M8.6-4.5H7.5v-0.2h1.1V-4.5z"/>
	<path class="st3" d="M11-4.1c-0.3,0.6-0.8,0.9-1.4,0.9c0,0.1-0.1,0.1-0.1,0L9.5-3.4c0.7,0,1.2-0.3,1.4-0.8L11-4.1z M9.5-4.4
		l0.1-0.2c0.1,0.1,0.3,0.2,0.4,0.3L9.9-4.1C9.8-4.2,9.6-4.3,9.5-4.4"/>
	<path class="st3" d="M12.8-3.6c-0.3-0.1-0.5-0.2-0.7-0.3v0.8h-0.2v-1.6h0.2c0.1,0,0.1,0,0,0.1v0.5c0.3,0.1,0.5,0.2,0.8,0.3
		L12.8-3.6z M12.8-4.3c-0.1-0.1-0.2-0.2-0.3-0.3l0.1-0.1c0.1,0.1,0.2,0.2,0.3,0.3L12.8-4.3z M13-4.5c-0.1-0.1-0.2-0.2-0.3-0.3
		l0.1-0.1c0.1,0.1,0.2,0.2,0.3,0.3L13-4.5z"/>
	<path class="st3" d="M14.9-3.3h-0.2v-0.1h-0.9v0.1h-0.2v-1.2h1.2V-3.3z M13.8-3.6h0.9v-0.8h-0.9V-3.6z"/>
	<path class="st3" d="M16.9-4.4v1.1h-0.2v-0.1h-1.1v-0.2h1.1v-0.7h-1.1v-0.2H16.9z M16.9-4.4c-0.1-0.1-0.2-0.2-0.2-0.3l0.1-0.1
		c0.1,0.1,0.2,0.2,0.2,0.3L16.9-4.4z M17.1-4.5c-0.1-0.1-0.2-0.2-0.2-0.3L17-4.9c0.1,0.1,0.2,0.2,0.2,0.3L17.1-4.5z"/>
	<path class="st4" d="M17.9,22.8v28.1H22v-3c0.9,0,1.1-0.2,1.1-0.8V29.8h2.6v16.6c0,0,0.1,2.4-0.2,3.3c-0.2,0.7-0.5,1-1.3,1.2H46
		V22.8H17.9z M25.6,28.7h-2.6V25h2.6V28.7z M33.3,33.5v6.4h-3.5v5.4c0,0.9,0.9,1,0.9-0.1v-3.9h2.6v3.8c0,0.4,0,4.2-3.1,4.2
		c-2.8,0-2.9-3.4-2.9-3.9V32.8c0-0.3,0.4-3.6,3-3.6C33.4,29.2,33.3,33.3,33.3,33.5 M40.9,36.2h-2.6c0,0,0-2.7,0-3c0-1-1-1.2-1,0.1
		c0,0.3,0,0.9,0,1.2c0,1.7,1.4,2.8,1.8,3.3c1.3,1.3,1.8,3,1.8,5v2.2c0,2-1,4.1-3.1,4.1c-2.7,0-3.1-3.3-3.1-4c0-0.4,0-3.7,0-3.7h2.6
		V45c0,1.6,1,1.1,1,0.4V43c0-0.9-0.6-1.7-0.9-2.2c-0.4-0.4-2.7-2-2.7-5.2c0-0.3,0-1.9,0-2.3c0-0.6,0.4-4.1,3.1-4.1
		c2.9,0,3.2,3.6,3.2,4.1V36.2z"/>
	<path class="st4" d="M30.3,32.5c-0.3,0-0.4,0.5-0.4,0.8V37h0.9v-3.7C30.7,33,30.6,32.5,30.3,32.5"/>
	<polygon class="st5" points="38.8,14.7 25.1,14.7 31.9,26.7 	"/>
	<path class="st4" d="M44.1,17.6h0.5v-0.5c0-0.2,0-0.8-0.6-0.8c-0.4,0-0.5,0.5-0.5,0.6v2.3c0,0.6,0.4,0.7,0.6,0.7
		c0.5,0,0.6-0.7,0.6-0.8v-0.7h-0.5v0.8c0,0.1-0.2,0.1-0.2,0V17c0-0.1,0.2-0.1,0.2,0V17.6z"/>
	<rect x="42.6" y="15.5" class="st4" width="0.5" height="0.7"/>
	<rect x="42.6" y="16.4" class="st4" width="0.5" height="3.6"/>
	<path class="st4" d="M34.5,16.4V20H35v-2.9c0-0.1,0.1-0.1,0.1,0v1.2h0.5v-1.7c0-0.1-0.1-0.3-0.3-0.3c-0.2,0-0.3,0.2-0.3,0.2H35
		v-0.2H34.5z"/>
	<path class="st4" d="M39.7,16.4V20h0.5v-2.9c0-0.1,0.1-0.1,0.1,0v1.2h0.5v-1.7c0-0.1-0.1-0.3-0.3-0.3c-0.2,0-0.3,0.2-0.3,0.2h-0.1
		v-0.2H39.7z"/>
	<path class="st4" d="M32.2,15.7v0.7h-0.1V17h0.1v2.5c0,0.3,0.4,0.5,0.6,0.5v-0.6c0,0-0.1,0-0.1-0.1V17h0.1v-0.6h-0.1v-0.7H32.2z"/>
	<polygon class="st4" points="29.6,20 29.2,16.4 29.7,16.4 29.8,18.8 29.8,18.8 29.8,18.8 30,16.4 30.4,16.4 30.1,20 	"/>
	<polygon class="st4" points="41.4,20 41.1,16.4 41.6,16.4 41.7,18.8 41.7,18.8 41.7,18.8 41.8,16.4 42.3,16.4 42,20 	"/>
	<rect x="27" y="15.5" class="st4" width="0.5" height="4.4"/>
	<path class="st4" d="M23.2,16.4V20h0.5v-2.8c0-0.2,0.2-0.2,0.2,0V20h0.5v-3.2c0-0.1-0.1-0.4-0.3-0.4c-0.1,0-0.3,0.1-0.3,0.3l-0.1,0
		v-0.2H23.2z"/>
	<path class="st4" d="M18.1,16.4v3.8c0,0.1-0.1,0.1-0.2,0.1v0.6c0,0,0.7,0,0.7-0.3v-4.1H18.1z"/>
	<rect x="18.1" y="15.5" class="st4" width="0.5" height="0.7"/>
	<path class="st4" d="M19.4,16.4c0.5,0,0.6,0.6,0.6,0.8V20h-0.5v-0.3h-0.1c0,0.4-0.4,0.4-0.5,0.2c-0.2-0.3-0.1-1.4,0-1.5
		c0.1-0.2,0.2-0.4,0.4-0.5c0.2-0.2,0.2-0.2,0.2-0.7c0-0.2-0.2-0.2-0.2,0c0,0.1,0,0.5,0,0.5h-0.4C18.9,17.5,18.8,16.4,19.4,16.4
		 M19.4,18.5c0,0.1-0.1,0.9,0.1,0.9c0.1,0,0.1,0,0.1-0.1v-1C19.4,18.3,19.4,18.4,19.4,18.5"/>
	<path class="st4" d="M22.3,16.4c0.5,0,0.6,0.6,0.6,0.8V20h-0.5v-0.3h-0.1c0,0.4-0.4,0.4-0.5,0.2c-0.1-0.3-0.1-1.4,0-1.5
		c0.1-0.2,0.2-0.4,0.4-0.5c0.2-0.2,0.2-0.2,0.2-0.7c0-0.2-0.2-0.2-0.2,0c0,0.1,0,0.5,0,0.5h-0.4C21.8,17.5,21.7,16.4,22.3,16.4
		 M22.3,18.5c0,0.1-0.1,0.9,0.1,0.9c0.1,0,0.1,0,0.1-0.1v-1C22.3,18.3,22.3,18.4,22.3,18.5"/>
	<path class="st4" d="M31.2,16.4c0.5,0,0.6,0.6,0.6,0.8V20h-0.5v-0.3h-0.1c0,0.4-0.4,0.4-0.5,0.2c-0.1-0.3-0.1-1.4,0-1.5
		c0.1-0.2,0.2-0.4,0.4-0.5c0.2-0.2,0.2-0.2,0.2-0.7c0-0.2-0.2-0.2-0.2,0c0,0.1,0,0.5,0,0.5h-0.4C30.6,17.5,30.6,16.4,31.2,16.4
		 M31.1,18.5c0,0.1-0.1,0.9,0.1,0.9c0.1,0,0.1,0,0.1-0.1v-1C31.2,18.3,31.2,18.4,31.1,18.5"/>
	<path class="st4" d="M20.8,16.4v0.3h0c0-0.1,0.1-0.3,0.3-0.3c0.3,0,0.3,0.4,0.3,0.5v2.6c0,0.1,0,0.6-0.3,0.6
		c-0.2,0-0.3-0.2-0.3-0.3h0v1.1h-0.5v-4.4H20.8z M20.8,17.2v2c0,0.2,0.2,0.2,0.2,0.1v-2.1C21,16.9,20.8,17,20.8,17.2"/>
	<path class="st4" d="M38.8,18.3v1c0,0.2,0.2,0.2,0.2,0v-0.7h0.5v0.9c0,0.2-0.1,0.6-0.5,0.6c-0.5,0-0.6-0.6-0.6-0.8V17
		c0-0.1,0.1-0.7,0.6-0.7c0.5,0,0.6,0.5,0.6,0.6v1.3H38.8z M38.8,17.8h0.2v-0.7c0-0.2-0.2-0.2-0.2,0V17.8z"/>
	<path class="st4" d="M45.4,18.3v1c0,0.2,0.2,0.2,0.2,0v-0.7H46v0.9c0,0.2-0.1,0.6-0.5,0.6c-0.5,0-0.6-0.6-0.6-0.8V17
		c0-0.1,0.1-0.7,0.6-0.7c0.5,0,0.6,0.5,0.6,0.6v1.4H45.4z M45.4,17.8h0.2v-0.7c0-0.2-0.2-0.2-0.2,0V17.8z"/>
	<path class="st4" d="M28.3,18.3v1c0,0.2,0.2,0.2,0.2,0v-0.7h0.5v0.9c0,0.2-0.1,0.6-0.5,0.6c-0.5,0-0.6-0.6-0.6-0.8V17
		c0-0.1,0.1-0.7,0.6-0.7c0.5,0,0.6,0.5,0.6,0.6v1.3H28.3z M28.3,17.8h0.2v-0.7c0-0.2-0.2-0.2-0.2,0V17.8z"/>
	<path class="st4" d="M26,18.3v1c0,0.2,0.2,0.2,0.2,0v-0.7h0.5v0.9c0,0.2-0.1,0.6-0.5,0.6c-0.5,0-0.6-0.6-0.6-0.8V17
		c0-0.1,0.1-0.7,0.6-0.7c0.5,0,0.6,0.5,0.6,0.6v1.3H26z M26,17.8h0.2v-0.7c0-0.2-0.2-0.2-0.2,0V17.8z"/>
	<path class="st4" d="M33.6,16.3c0.5,0,0.6,0.6,0.6,0.7v2.4c0,0.2-0.1,0.6-0.6,0.6c-0.4,0-0.6-0.4-0.6-0.6V17
		C33.1,16.9,33.2,16.3,33.6,16.3 M33.5,17.1v2.2c0,0.1,0.2,0.2,0.2,0v-2.2C33.7,16.9,33.5,16.9,33.5,17.1"/>
	<path class="st4" d="M37.5,17.6H38v-0.5c0-0.1,0-0.8-0.6-0.8c-0.5,0-0.6,0.6-0.6,0.8l0,0.4c0,0.6,0.4,0.9,0.5,1
		c0.1,0.1,0.2,0.2,0.2,0.4v0.4c0,0.1-0.2,0.2-0.2-0.1v-0.6h-0.5c0,0,0,0.6,0,0.7c0,0.1,0.1,0.7,0.6,0.7c0.4,0,0.6-0.4,0.6-0.7v-0.4
		c0-0.4-0.1-0.7-0.3-0.9c-0.1-0.1-0.3-0.3-0.3-0.6l0-0.2c0-0.2,0.2-0.2,0.2,0L37.5,17.6z"/>
	<path class="st3" d="M57.9,26.8c-0.9-0.5-2.1-0.9-2.4-1l0.4-1c1,0.3,1.7,0.5,2.4,0.9L57.9,26.8z M56,28.6c3-0.3,4.5-1,5.7-4.5
		l1,0.5c-1.2,3.5-2.8,4.8-6.4,5.2L56,28.6z M58.6,24.8c-0.5-0.3-1.3-0.6-2.4-0.9l0.4-1c1.4,0.4,2.1,0.7,2.5,0.9L58.6,24.8z
		 M61.1,23.8c0-0.2-0.2-0.8-0.4-1.3l0.7-0.1c0.2,0.4,0.3,0.6,0.4,1.3L61.1,23.8z M62.3,23.6c0-0.1-0.2-0.7-0.4-1.3l0.7-0.1
		c0.2,0.5,0.4,1.1,0.4,1.2L62.3,23.6z"/>
	<path class="st3" d="M65.3,24.2l1-0.1l0.2,1.3l3.4-0.5c0,1.4-0.4,2.5-1.7,3.4l-0.7-0.7c0.7-0.5,1-0.8,1.2-1.5l-2,0.3l0.6,3.6
		l-1.1,0.1l-0.6-3.6l-1.6,0.2l-0.2-1l1.6-0.2L65.3,24.2z"/>
	<path class="st3" d="M70.5,29c1.4-1.5,1.7-4.1,1.8-6l1.1,0.1c-0.2,4.2-1.3,5.8-1.9,6.7L70.5,29z M76.2,23c0.2,2.8,1.2,4.9,2.1,6
		l-1,0.8c-1.3-1.8-1.9-4.4-2.1-6.7L76.2,23z M78.5,23.2c0,0.5-0.4,0.9-0.9,0.9c-0.5,0-0.9-0.4-0.9-0.9c0-0.5,0.4-0.9,0.9-0.9
		C78.1,22.3,78.5,22.7,78.5,23.2 M77.3,23.2c0,0.2,0.2,0.4,0.4,0.4c0.2,0,0.4-0.2,0.4-0.4c0-0.2-0.2-0.4-0.4-0.4
		C77.4,22.8,77.3,23,77.3,23.2"/>
	<path class="st3" d="M82,25.4c-0.2-0.1-1.3-0.9-2.6-1.3l0.5-1c1.2,0.4,2.1,0.8,2.6,1.2L82,25.4z M79.5,28.6c2.7-0.2,4.9-1.1,6.1-5
		l1.1,0.5c-1.3,4-3.5,5.2-6.8,5.7L79.5,28.6z"/>
	<polygon class="st3" points="94.2,23.4 94.2,24.5 91.6,24.5 91.6,28.3 94.6,28.3 94.6,29.4 87.5,29.4 87.5,28.3 90.5,28.3 
		90.5,24.5 87.9,24.5 87.9,23.4 	"/>
	<path class="st3" d="M97.4,28.6c1.4-0.1,3.4-0.7,4.4-3.9l1,0.5c-0.8,2.3-2.2,4.5-6.6,4.6v-7.1h1.2V28.6z"/>
	<path class="st3" d="M103.4,26.5c0.3-0.3,1.3-1.5,1.7-2c0.5-0.6,0.8-0.9,1.3-0.9c0.4,0,0.8,0.2,1.4,0.9l3.5,3.6l-0.9,1l-3.5-3.8
		c-0.3-0.3-0.4-0.4-0.6-0.4c-0.2,0-0.3,0.1-0.4,0.3c-0.3,0.4-1.6,2-1.8,2.3L103.4,26.5z M109.5,24.7c-0.2-0.4-0.5-0.8-0.8-1.2
		l0.6-0.4c0.4,0.5,0.6,0.7,0.8,1.1L109.5,24.7z M110.5,24.1c-0.3-0.4-0.5-0.8-0.9-1.1l0.6-0.4c0.4,0.4,0.8,1,0.9,1.1L110.5,24.1z"/>
	<rect x="111.8" y="25.7" class="st3" width="7.5" height="1.2"/>
	<path class="st3" d="M123.4,25.5c0.3,0.1,1.1,0.5,1.9,1.1c0.6-0.8,0.8-1.7,0.9-2h-2.7c-1,1.3-1.9,1.8-2.2,2l-0.7-0.8
		c1.5-0.8,2.3-1.8,2.8-3.3l1.2,0.2c-0.1,0.3-0.2,0.5-0.4,0.9h3.4c-0.3,2-1.3,5.3-5.9,6.4l-0.6-1c0.5-0.1,2-0.3,3.5-1.6
		c-0.8-0.7-1.4-1-1.8-1.2L123.4,25.5z"/>
	<rect x="128.4" y="25.7" class="st3" width="7.5" height="1.2"/>
	<path class="st3" d="M141.6,22.7h1.1v1.6h1.4v1h-1.4V26c0,2.8-1.6,3.6-4,4l-0.5-1.1c2.4-0.3,3.3-1.1,3.3-2.9v-0.7h-2.5v2.1H138
		v-2.1h-1.4v-1h1.4v-1.5h1.1v1.5h2.5V22.7z"/>
	<rect x="144.9" y="25.7" class="st3" width="7.5" height="1.2"/>
	<path class="st3" d="M155.1,22.9v2.4c1.7-0.4,2.8-0.9,3.8-1.4l0.1,0.3l0.1-0.1l0.5,0.7c-1.6,0.8-3.1,1.3-4.5,1.5v1.7
		c0,0.4,0.1,0.5,0.6,0.5h2.6c0.6,0,1.2-0.1,1.7-0.2l0.1,1.2c-0.3,0-0.7,0.1-1.7,0.1h-2.9c-1.2,0-1.6-0.5-1.6-1.2v-5.5H155.1z
		 M159.2,24c-0.2-0.7-0.4-1-0.5-1.3l0.7-0.2c0.3,0.5,0.4,1,0.6,1.3L159.2,24z M160.3,23.8c-0.1-0.3-0.3-0.8-0.5-1.3l0.6-0.2
		c0.3,0.4,0.5,1,0.5,1.3L160.3,23.8z"/>
	<path class="st3" d="M161.6,29.1c1.9-0.7,3.8-2.4,4.7-4.9h-4.3v-1.1h5.8c-0.1,0.5-0.4,1.8-1.5,3.5c1,0.8,1.9,1.6,2.8,2.4l-1,0.9
		c-0.8-0.9-1.6-1.7-2.5-2.5c-0.9,1.1-2,2-3.4,2.5L161.6,29.1z"/>
	<path class="st3" d="M170.1,28.9c1-1,1.2-2.2,1.3-3l1.1,0.1c-0.2,2.4-1,3.3-1.5,3.7L170.1,28.9z M174.4,22.7V24h2.9v1.1h-2.9V30
		h-1.1v-4.9h-2.9V24h2.9v-1.3H174.4z M176.3,25.8c0.3,1.6,0.6,2.3,1.3,3.1l-0.9,0.7c-0.7-0.8-1.2-1.7-1.4-3.7L176.3,25.8z"/>
	<rect x="178.2" y="25.7" class="st3" width="7.5" height="1.2"/>
	<path class="st3" d="M188.5,25.1c0,1-0.1,1.9-0.3,2.7c-0.2,1-0.6,1.8-1.3,2.4l-0.9-0.8c0.5-0.4,1.3-1.3,1.3-4.1V23h1.1V25.1z
		 M190.7,28.6c0.5-0.2,1-0.5,1.5-1.2c0.2-0.3,0.5-0.9,0.7-1.9l1,0.4c-0.5,2.3-2,4-4.3,4v-7.2h1.1V28.6z"/>
	<path class="st3" d="M202,25.1v1h-2.7l0,0.2c-0.2,2.8-1.9,3.4-3.6,3.7l-0.5-1c1.7-0.2,2.8-0.6,2.9-2.7l0-0.2h-3.2v-1H202z
		 M200.6,22.9c0.1,0.3,0.1,0.5,0.1,0.8v0.2h-5.3v-1H200.6z M201,23.7c0-0.4-0.1-0.7-0.2-1.3l0.6-0.1c0.2,0.6,0.2,0.7,0.3,1.3
		L201,23.7z M202,23.6c-0.1-0.8-0.2-1.1-0.3-1.3l0.6-0.1c0.2,0.4,0.2,0.7,0.3,1.3L202,23.6z"/>
	<path class="st3" d="M206.9,30.1h-1v-2.9c-1.1,0.7-1.8,0.9-2.4,1.1l-0.5-0.9c2.9-0.9,4.4-2.6,5-3.4l0.9,0.7c-0.2,0.3-0.9,1-1.9,1.8
		V30.1z"/>
	<path class="st3" d="M212.7,25.4c-0.2-0.1-1.3-0.9-2.6-1.3l0.5-1c1.2,0.4,2.1,0.8,2.6,1.2L212.7,25.4z M210.3,28.6
		c2.7-0.2,4.9-1.1,6.1-5l1.1,0.5c-1.3,4-3.5,5.2-6.8,5.7L210.3,28.6z"/>
	<path class="st3" d="M218.2,25.8c1.4-0.7,2.2-1.9,2.6-3.2l1.2,0.2c-0.2,0.4-0.3,0.7-0.5,1h2.1l0.1,0.3l1.3-0.2
		c-0.2,1.7-0.8,3.2-2,4.4c-1.1,1.1-2.5,1.5-4,1.8l-0.5-1.1c2.6-0.4,4.3-1.3,5.1-4.1h-2.8c-0.8,1-1.3,1.4-2,1.8L218.2,25.8z
		 M224,23.8c-0.2-0.8-0.3-0.9-0.4-1.3l0.7-0.1c0.1,0.2,0.2,0.5,0.4,1.2L224,23.8z M225.1,23.6c-0.1-0.2-0.2-0.8-0.4-1.2l0.7-0.1
		c0.3,0.5,0.4,1,0.4,1.2L225.1,23.6z"/>
	<path class="st3" d="M226.4,29.1c1.9-0.7,3.8-2.4,4.7-4.9h-4.3v-1.1h5.8c-0.1,0.5-0.4,1.8-1.5,3.5c1,0.8,1.9,1.6,2.8,2.4l-1,0.9
		c-0.8-0.9-1.6-1.7-2.5-2.5c-0.9,1.1-2,2-3.4,2.5L226.4,29.1z"/>
	<path class="st3" d="M238.8,24.6c-0.2,0.5-0.4,0.7-0.5,1l-0.9-0.6l0.1-0.1h-0.7v0.5c0.2,0.4,0.7,1.1,1.2,1.6l-0.6,0.9
		c-0.2-0.3-0.4-0.7-0.6-1v3.6h-1v-3.5c-0.3,0.9-0.5,1.4-0.9,1.9l-0.4-1.3c0.6-0.7,0.9-1.6,1.2-2.5h-1v-1h1.1v-1.5h1v1.5h0.9v0.7
		c0.4-0.7,0.6-1.4,0.7-1.9l1,0.1c-0.1,0.2-0.1,0.4-0.2,0.8h0.5v-1.2h1v1.2h1.7v1h-1.7v1h1.9v1h-1.6c0.5,1,1.1,1.5,1.7,2l-0.5,1.1
		c-0.2-0.2-0.9-0.7-1.6-2.1v2.7h-1v-2.7c-0.4,0.7-0.9,1.4-1.8,2.1l-0.6-1c0.7-0.5,1.5-1.1,2.1-2.2h-1.7v-1h2v-1H238.8z"/>
	<path class="st3" d="M243.3,29c0.5,0,1-0.1,1.7-0.2v-2.2h-1.5v-1h4v1h-1.4v2.1c0.7-0.1,1.3-0.2,1.7-0.3l0,1
		c-1.2,0.3-2.8,0.5-4.3,0.6L243.3,29z M250.3,23.6h1v1h-2.5c0.1,2.9,0.9,4.3,1.3,4.3c0.3,0,0.5-0.7,0.6-1.2l0.7,0.8
		c-0.1,0.4-0.4,1.7-1.2,1.7c-0.4,0-2.2-0.4-2.4-5.7h-4.4v-1h4.3c0-0.2,0-1.1,0-1.3h1.1c0,0.1,0,0.7,0,1.3h1.2
		c-0.3-0.3-0.6-0.6-1-0.8l0.7-0.5c0.4,0.2,0.8,0.5,1.1,0.9L250.3,23.6z"/>
	<path class="st3" d="M253.8,25.1c-0.7,0.4-1.1,0.6-1.4,0.7l-0.5-1c2-0.8,3-1.7,3.5-2.4h1.2c0.5,0.6,1.3,1.5,3.5,2.4l-0.5,1
		c-0.3-0.1-0.7-0.3-1.3-0.7v0.5h-4.4V25.1z M258.7,30.4c-0.1-0.2-0.2-0.3-0.3-0.6c-1.1,0.1-2.5,0.3-5.9,0.4l-0.1-1.1
		c0.1,0,1,0,1.2,0c0.2-0.5,0.5-1.2,0.7-1.7h-2v-1h7.5v1h-4.3c-0.3,0.8-0.5,1.2-0.8,1.7c0.3,0,1.7,0,3.1-0.1c-0.2-0.3-0.4-0.5-0.8-1
		l0.9-0.5c1,1,1.7,2.1,1.9,2.4L258.7,30.4z M257.6,24.6c-0.9-0.7-1.3-1.2-1.5-1.4c-0.4,0.6-1,1.1-1.5,1.4H257.6z"/>
	<path class="st3" d="M263,30.3H262v-3.1c-0.4,0.4-0.7,0.6-1,0.7l-0.3-1.2c1-0.6,1.8-1.5,2.2-2.3h-2v-1h1.2v-1.2h1.1v1.2h0.9v1
		c-0.3,0.6-0.5,1-0.8,1.3c0.5,0.6,0.9,0.8,1.2,1l-0.5,1c-0.3-0.2-0.5-0.5-0.8-0.9V30.3z M265.7,22.4h1.1v2.3h1.7v1.1h-1.7V29h1.9
		v1.1h-5V29h2v-3.3h-1.7v-1.1h1.7V22.4z"/>
	<path class="st4" d="M55.8,37.4h4.3v13.8c0,3-1.7,3.4-4,3.4c-0.6,0-1.3,0-1.9-0.1v-2.9c1.1,0,1.6-0.1,1.6-0.9V37.4z M55.8,33.3h4.3
		v3.2h-4.3V33.3z"/>
	<path class="st4" d="M68.1,50.3c-0.1-0.5-0.2-0.9-0.3-1.5h0c-0.5,1.1-1.6,1.8-2.9,1.8c-2.6,0-3.6-1.6-3.6-3.8
		c0-2.4,0.8-3.5,3.6-4.2l1.7-0.4c0.9-0.2,1.3-0.6,1.3-1.4c0-0.8-0.4-1.2-1.1-1.2c-0.8,0-1.2,0.4-1.2,1.7h-3.7c0-3.7,3-4.3,4.9-4.3
		c3,0,5.1,0.8,5.1,4.2v6.3c0,1.2,0,2.1,0.4,2.8H68.1z M67.8,45.7v-1.6h0c-0.2,0.3-0.8,0.3-1.5,0.6c-0.7,0.3-0.9,0.8-0.9,1.7
		c0,0.9,0.4,1.4,1.1,1.4C67.4,47.8,67.8,47.1,67.8,45.7"/>
	<path class="st4" d="M73.6,37.4h4.2v1.8h0c0.5-1.4,1.5-2.1,2.9-2.1c2.9,0,3.9,2.3,3.9,7.1c0,4.9-1.6,6.5-4,6.5
		c-1.2,0-2.3-0.5-2.7-1.8h0v5.7h-4.3V37.4z M79.1,47.5c1,0,1.2-0.8,1.2-3.6c0-2.8-0.2-3.6-1.2-3.6c-1,0-1.2,0.8-1.2,3.6
		C77.9,46.7,78.1,47.5,79.1,47.5"/>
	<path class="st4" d="M92.3,50.3c-0.1-0.5-0.2-0.9-0.3-1.5h0c-0.5,1.1-1.6,1.8-2.9,1.8c-2.6,0-3.6-1.6-3.6-3.8
		c0-2.4,0.8-3.5,3.6-4.2l1.7-0.4c0.9-0.2,1.3-0.6,1.3-1.4c0-0.8-0.4-1.2-1.1-1.2c-0.8,0-1.2,0.4-1.2,1.7H86c0-3.7,3-4.3,4.9-4.3
		c3,0,5.1,0.8,5.1,4.2v6.3c0,1.2,0,2.1,0.4,2.8H92.3z M92,45.7v-1.6h0c-0.2,0.3-0.8,0.3-1.5,0.6c-0.7,0.3-0.9,0.8-0.9,1.7
		c0,0.9,0.4,1.4,1.1,1.4C91.6,47.8,92,47.1,92,45.7"/>
	<path class="st4" d="M97.8,37.4h4.2V39h0c0.5-1.3,1.6-1.9,3.1-1.9c1.9,0,3.4,0.7,3.4,3.5v9.7h-4.3v-8.5c0-1.1-0.3-1.5-1-1.5
		c-0.8,0-1.1,0.5-1.1,1.5v8.5h-4.3V37.4z"/>
	<path class="st4" d="M120.6,44.6v1.7c0,1.4,0.6,1.7,1.2,1.7c0.8,0,1.2-0.5,1.2-2.2h3.9c0,3.1-1.5,4.9-5.1,4.9
		c-4.2,0-5.5-1.9-5.5-6.8c0-4.9,1.6-6.8,5.5-6.8c3.4,0,5.2,1.5,5.2,6.2v1.3H120.6z M122.9,41.7c0-1.4-0.3-2-1.2-2
		c-0.9,0-1.2,0.6-1.2,2v0.6h2.4V41.7z"/>
	<rect x="128.3" y="33.3" class="st4" width="4.3" height="17.1"/>
	<path class="st4" d="M138.2,44.6v1.7c0,1.4,0.6,1.7,1.2,1.7c0.8,0,1.2-0.5,1.2-2.2h3.9c0,3.1-1.5,4.9-5.1,4.9
		c-4.2,0-5.5-1.9-5.5-6.8c0-4.9,1.6-6.8,5.5-6.8c3.4,0,5.2,1.5,5.2,6.2v1.3H138.2z M140.6,41.7c0-1.4-0.3-2-1.2-2
		c-0.9,0-1.2,0.6-1.2,2v0.6h2.4V41.7z"/>
	<polygon class="st4" points="144.8,37.4 149.2,37.4 150.4,46.7 150.5,46.7 151.7,37.4 156.1,37.4 152.9,50.3 147.9,50.3 	"/>
	<path class="st4" d="M162.9,50.3c-0.1-0.5-0.2-0.9-0.3-1.5h0c-0.5,1.1-1.6,1.8-2.9,1.8c-2.6,0-3.6-1.6-3.6-3.8
		c0-2.4,0.8-3.5,3.6-4.2l1.7-0.4c0.9-0.2,1.3-0.6,1.3-1.4c0-0.8-0.4-1.2-1.1-1.2c-0.8,0-1.2,0.4-1.2,1.7h-3.7c0-3.7,3-4.3,4.9-4.3
		c3,0,5.1,0.8,5.1,4.2v6.3c0,1.2,0,2.1,0.4,2.8H162.9z M162.6,45.7v-1.6h0c-0.2,0.3-0.8,0.3-1.5,0.6c-0.7,0.3-0.9,0.8-0.9,1.7
		c0,0.9,0.4,1.4,1,1.4C162.2,47.8,162.6,47.1,162.6,45.7"/>
	<path class="st4" d="M167.7,37.4h1.4v-3.8h4.3v3.8h1.7v2.9h-1.7v6.2c0,0.7,0.3,1,1,1h0.7v2.9c-0.8,0.1-1.6,0.1-2.3,0.1
		c-2.6,0-3.7-0.4-3.7-3.3v-6.9h-1.4V37.4z"/>
	<path class="st4" d="M181.2,50.7c-5,0-5.5-3.1-5.5-6.8c0-3.4,0.6-6.8,5.5-6.8c5,0,5.5,3.1,5.5,6.8
		C186.7,47.3,186.1,50.7,181.2,50.7 M181.2,47.9c1,0,1.2-0.8,1.2-4c0-3.3-0.2-4-1.2-4c-1,0-1.2,0.8-1.2,4
		C180,47.1,180.3,47.9,181.2,47.9"/>
	<path class="st4" d="M188,37.4h4.2v2.1h0c0.5-1.6,1.6-2.4,2.9-2.4h0.7v4c-0.4-0.1-0.7-0.1-1.1-0.1c-1.5,0-2.4,0.6-2.4,2.3v7H188
		V37.4z"/>
	<path class="st4" d="M206.3,46.3c0,0.5,0.1,1,0.3,1.3c0.2,0.3,0.5,0.5,0.9,0.5c0.7,0,1.2-0.4,1.2-1.1c0-2.3-6.2-0.9-6.2-5.8
		c0-2.3,1.6-4,5.1-4c3.2,0,4.8,1.4,4.8,4.1h-3.7c0-1.1-0.4-1.4-1.1-1.4c-0.6,0-1.1,0.4-1.1,1c0,2.1,6.2,0.7,6.2,5.6
		c0,2.5-1.9,4.3-5.2,4.3c-3.6,0-5.1-1.5-5.1-4.3H206.3z"/>
	<path class="st4" d="M218,44.6v1.7c0,1.4,0.6,1.7,1.2,1.7c0.8,0,1.2-0.5,1.2-2.2h3.9c0,3.1-1.5,4.9-5.1,4.9c-4.2,0-5.5-1.9-5.5-6.8
		c0-4.9,1.6-6.8,5.5-6.8c3.4,0,5.2,1.5,5.2,6.2v1.3H218z M220.3,41.7c0-1.4-0.3-2-1.2-2c-0.9,0-1.2,0.6-1.2,2v0.6h2.4V41.7z"/>
	<path class="st4" d="M225.6,37.4h4.2v2.1h0c0.5-1.6,1.6-2.4,2.9-2.4h0.7v4c-0.4-0.1-0.7-0.1-1.1-0.1c-1.5,0-2.4,0.6-2.4,2.3v7h-4.3
		V37.4z"/>
	<polygon class="st4" points="233.7,37.4 238.2,37.4 239.4,46.7 239.4,46.7 240.6,37.4 245.1,37.4 241.9,50.3 236.8,50.3 	"/>
	<path class="st4" d="M246,33.3h4.3v3.2H246V33.3z M246,37.4h4.3v12.9H246V37.4z"/>
	<path class="st4" d="M258.4,42.5c0-1.1-0.1-1.7-0.3-2.1c-0.2-0.4-0.5-0.6-1-0.6c-1,0-1.3,0.9-1.3,4c0,3.2,0.3,4,1.3,4
		c0.8,0,1.2-0.5,1.2-2.1v-0.8h3.9c0,2-0.3,3.4-1.1,4.4c-0.8,0.9-2.2,1.4-4,1.4c-3.3,0-5.6-1-5.6-6.6c0-6.1,2.6-7,5.8-7
		c3.8,0,4.9,2.2,4.9,5.4H258.4z"/>
	<path class="st4" d="M267.5,44.6v1.7c0,1.4,0.6,1.7,1.2,1.7c0.8,0,1.2-0.5,1.2-2.2h3.9c0,3.1-1.5,4.9-5.1,4.9
		c-4.2,0-5.5-1.9-5.5-6.8c0-4.9,1.6-6.8,5.5-6.8c3.4,0,5.2,1.5,5.2,6.2v1.3H267.5z M269.9,41.7c0-1.4-0.3-2-1.2-2
		c-0.9,0-1.2,0.6-1.2,2v0.6h2.4V41.7z"/>
</g>
<g>
	<defs>
		<rect id="SVGID_5_" x="46.2" y="51.7" width="345.8" height="20.6"/>
	</defs>
	<clipPath id="SVGID_6_">
		<use xlink:href="#SVGID_5_"  style="overflow:visible;"/>
	</clipPath>
	<path class="st6" d="M-23.5,16.1v-0.3h1.9l0.2,0l0.1,0.1c0,1.1-0.6,1.8-1.7,2.1l-0.2-0.3c1-0.2,1.6-0.8,1.6-1.6H-23.5z M-21.6,15.8
		c-0.1-0.1-0.2-0.2-0.3-0.3l0.1-0.1c0.1,0.1,0.2,0.2,0.3,0.3L-21.6,15.8z M-21.1,15.8c-0.1-0.1-0.3-0.3-0.4-0.4l0.1-0.1
		c0.1,0.1,0.3,0.2,0.4,0.4L-21.1,15.8z"/>
	<path class="st6" d="M-19.9,18c0.8-0.2,1.2-0.6,1.3-1.3h-1.9v-0.3h1.9l0.1,0l0.2,0.1c0,0,0,0.1,0,0.1c-0.1,0.8-0.6,1.3-1.4,1.6
		L-19.9,18z M-18.5,16h-1.7v-0.3h1.7V16z"/>
	<path class="st6" d="M-14.8,16.5c-0.4,0.9-1.2,1.4-2.2,1.4c0,0.1-0.1,0.1-0.1,0l-0.1-0.3c1.1,0,1.8-0.5,2.1-1.3L-14.8,16.5z
		 M-17.2,16l0.2-0.3c0.2,0.1,0.4,0.3,0.6,0.5l-0.2,0.2C-16.8,16.3-17,16.2-17.2,16"/>
	<path class="st6" d="M-12.1,17.2c-0.4-0.2-0.8-0.4-1.1-0.4v1.3h-0.3v-2.5h0.2c0.1,0,0.1,0,0,0.1v0.8c0.4,0.1,0.8,0.3,1.2,0.5
		L-12.1,17.2z M-12.1,16.2c-0.1-0.2-0.3-0.3-0.4-0.4l0.2-0.1c0.1,0.1,0.3,0.2,0.4,0.4L-12.1,16.2z M-11.8,15.9
		c-0.1-0.1-0.2-0.3-0.4-0.4l0.2-0.1c0.1,0.1,0.3,0.2,0.4,0.4L-11.8,15.9z"/>
	<path class="st6" d="M-8.9,17.8h-0.3v-0.1h-1.4v0.2h-0.3v-1.9h1.9V17.8z M-10.5,17.4h1.4v-1.2h-1.4V17.4z"/>
	<path class="st6" d="M-5.8,16.1v1.8h-0.3v-0.1h-1.7v-0.3h1.7v-1.1h-1.7v-0.3H-5.8z M-5.8,16c-0.1-0.2-0.2-0.3-0.4-0.4l0.2-0.1
		c0.1,0.1,0.3,0.3,0.4,0.4L-5.8,16z M-5.4,15.9c-0.1-0.2-0.3-0.3-0.4-0.4l0.2-0.1c0.1,0.1,0.3,0.3,0.4,0.4L-5.4,15.9z"/>
	<path class="st7" d="M-4.2,58.1v43.4h6.4v-4.6c1.4,0,1.7-0.3,1.7-1.2V69h3.9v25.7c0,0,0.1,3.7-0.4,5.1c-0.3,1-0.8,1.6-2.1,1.9h33.9
		V58.1H-4.2z M7.8,67.2H3.8v-5.7h3.9V67.2z M19.6,74.7v9.9h-5.4v8.3c0,1.4,1.4,1.5,1.4-0.2v-6.1h4v5.9c0,0.6,0,6.5-4.8,6.5
		c-4.3,0-4.6-5.3-4.6-6V73.6c0-0.5,0.7-5.6,4.6-5.6C19.7,68,19.6,74.3,19.6,74.7 M31.4,78.8h-4.1c0,0,0-4.2,0-4.6
		c0-1.5-1.6-1.8-1.6,0.2c0,0.4,0,1.4,0,1.9c0,2.6,2.2,4.4,2.8,5.1c2,2,2.8,4.7,2.8,7.7v3.5c0,3.1-1.6,6.3-4.8,6.3
		c-4.1,0-4.8-5.1-4.8-6.1c0-0.7,0-5.7,0-5.7h4v5.2c0,2.4,1.5,1.7,1.5,0.5v-3.6c0-1.4-0.9-2.6-1.5-3.3c-0.6-0.7-4.1-3.1-4.1-8
		c0-0.5,0-2.9,0-3.5c0-0.9,0.6-6.4,4.8-6.4c4.5,0,4.9,5.6,4.9,6.4V78.8z"/>
	<path class="st7" d="M14.9,73c-0.5,0-0.7,0.7-0.7,1.2V80h1.4v-5.7C15.6,73.9,15.4,73,14.9,73"/>
	<polygon class="st8" points="28.1,45.6 6.9,45.6 17.5,64.1 	"/>
	<path class="st7" d="M36.2,50.1H37v-0.8c0-0.3,0-1.2-0.9-1.2c-0.7,0-0.8,0.8-0.8,1v3.6c0,0.9,0.6,1.1,0.9,1.1
		c0.8,0,0.9-1.1,0.9-1.2v-1.1h-0.8v1.2c0,0.2-0.2,0.2-0.2,0v-3.6c0-0.1,0.2-0.2,0.2,0V50.1z"/>
	<rect x="34" y="46.8" class="st7" width="0.7" height="1"/>
	<rect x="34" y="48.2" class="st7" width="0.7" height="5.5"/>
	<path class="st7" d="M21.5,48.2v5.5h0.7v-4.5c0-0.1,0.2-0.2,0.2,0v1.9h0.7v-2.6c0-0.2-0.1-0.5-0.4-0.5c-0.3,0-0.4,0.3-0.4,0.4h-0.1
		v-0.3H21.5z"/>
	<path class="st7" d="M29.5,48.2v5.5h0.7v-4.5c0-0.1,0.2-0.2,0.2,0v1.9h0.7v-2.6c0-0.2-0.1-0.5-0.4-0.5c-0.3,0-0.4,0.3-0.4,0.4h-0.1
		v-0.3H29.5z"/>
	<path class="st7" d="M17.9,47.2v1h-0.2v0.9h0.2V53c0,0.5,0.6,0.8,0.9,0.8v-1c-0.1,0-0.2,0-0.2-0.1v-3.6h0.2v-0.9h-0.2v-1H17.9z"/>
	<polygon class="st7" points="13.8,53.8 13.3,48.2 14,48.2 14.2,51.9 14.2,51.9 14.2,51.9 14.4,48.2 15.1,48.2 14.6,53.8 	"/>
	<polygon class="st7" points="32.1,53.8 31.6,48.2 32.3,48.2 32.5,51.9 32.6,51.9 32.6,51.9 32.8,48.2 33.5,48.2 33,53.8 	"/>
	<rect x="9.8" y="46.9" class="st7" width="0.7" height="6.9"/>
	<path class="st7" d="M4,48.2v5.5h0.8v-4.4c0-0.3,0.3-0.3,0.3,0v4.4h0.7v-4.9c0-0.2-0.1-0.7-0.5-0.7c-0.2,0-0.4,0.2-0.4,0.4l-0.1,0
		v-0.4H4z"/>
	<path class="st7" d="M-3.9,48.2V54c0,0.1-0.2,0.1-0.3,0.1V55c0,0,1-0.1,1-0.5v-6.3H-3.9z"/>
	<rect x="-3.9" y="46.9" class="st7" width="0.7" height="1.1"/>
	<path class="st7" d="M-1.8,48.2c0.8,0,0.9,1,0.9,1.2v4.4h-0.7v-0.4h-0.1c0,0.6-0.6,0.6-0.8,0.3c-0.2-0.4-0.2-2.1-0.1-2.4
		c0.1-0.3,0.3-0.6,0.6-0.8c0.4-0.4,0.3-0.3,0.3-1.1c0-0.3-0.3-0.3-0.3,0c0,0.2,0,0.8,0,0.8h-0.7C-2.7,49.9-2.8,48.2-1.8,48.2
		 M-1.9,51.5c0,0.1-0.1,1.4,0.1,1.4c0.1,0,0.1-0.1,0.1-0.1v-1.6C-1.9,51.2-1.9,51.3-1.9,51.5"/>
	<path class="st7" d="M2.6,48.2c0.8,0,0.9,1,0.9,1.2v4.4H2.8v-0.4H2.7c0,0.6-0.6,0.6-0.8,0.3c-0.2-0.4-0.2-2.1-0.1-2.4
		c0.1-0.3,0.3-0.6,0.6-0.8c0.4-0.4,0.3-0.3,0.3-1.1c0-0.3-0.3-0.3-0.3,0c0,0.2,0,0.8,0,0.8H1.8C1.8,49.9,1.6,48.2,2.6,48.2
		 M2.5,51.5c0,0.1-0.1,1.4,0.1,1.4c0.1,0,0.1-0.1,0.1-0.1v-1.6C2.6,51.2,2.6,51.3,2.5,51.5"/>
	<path class="st7" d="M16.3,48.2c0.8,0,0.9,1,0.9,1.2v4.4h-0.8v-0.4h-0.1c0,0.6-0.6,0.6-0.8,0.3c-0.2-0.4-0.2-2.1-0.1-2.4
		c0.1-0.3,0.3-0.6,0.6-0.8c0.4-0.4,0.3-0.3,0.3-1.1c0-0.3-0.3-0.3-0.3,0c0,0.2,0,0.8,0,0.8h-0.7C15.5,49.9,15.3,48.2,16.3,48.2
		 M16.2,51.5c0,0.1-0.1,1.4,0.1,1.4c0.1,0,0.1-0.1,0.1-0.1v-1.6C16.3,51.2,16.3,51.3,16.2,51.5"/>
	<path class="st7" d="M0.3,48.2v0.5h0.1c0-0.1,0.2-0.5,0.5-0.5c0.5,0,0.5,0.6,0.5,0.8v4c0,0.2-0.1,0.9-0.5,0.9
		c-0.3,0-0.5-0.3-0.5-0.5H0.3V55h-0.7v-6.8H0.3z M0.3,49.4v3.1c0,0.4,0.3,0.3,0.3,0.1v-3.3C0.5,49.1,0.3,49.2,0.3,49.4"/>
	<path class="st7" d="M28,51.2v1.5c0,0.3,0.3,0.3,0.3,0v-1.1H29v1.3c0,0.2-0.1,1-0.8,1c-0.8,0-0.9-1-0.9-1.2v-3.5c0-0.2,0.2-1,0.9-1
		c0.7,0,0.9,0.7,0.9,0.9v2.1H28z M28,50.4h0.3v-1c0-0.3-0.3-0.3-0.3,0V50.4z"/>
	<path class="st7" d="M38.2,51.1v1.5c0,0.3,0.3,0.3,0.3,0v-1.1h0.7v1.3c0,0.2-0.1,1-0.8,1c-0.8,0-0.9-1-0.9-1.2v-3.5
		c0-0.2,0.2-1,0.9-1c0.7,0,0.9,0.7,0.9,0.9v2.1H38.2z M38.2,50.3h0.3v-1c0-0.3-0.3-0.3-0.3,0V50.3z"/>
	<path class="st7" d="M11.8,51.2v1.5c0,0.3,0.3,0.3,0.3,0v-1.1h0.7v1.3c0,0.2-0.1,1-0.8,1c-0.8,0-0.9-1-0.9-1.2v-3.5
		c0-0.2,0.2-1,0.9-1c0.7,0,0.9,0.7,0.9,0.9v2.1H11.8z M11.8,50.4h0.3v-1c0-0.3-0.3-0.3-0.3,0V50.4z"/>
	<path class="st7" d="M8.3,51.2v1.5c0,0.3,0.3,0.3,0.3,0v-1.1h0.7v1.3c0,0.2-0.1,1-0.8,1c-0.8,0-0.9-1-0.9-1.2v-3.5
		c0-0.2,0.2-1,0.9-1c0.7,0,0.9,0.7,0.9,0.9v2.1H8.3z M8.3,50.4h0.3v-1c0-0.3-0.3-0.3-0.3,0V50.4z"/>
	<path class="st7" d="M20.1,48.1c0.8,0,0.9,0.9,0.9,1v3.7c0,0.3-0.2,0.9-0.9,0.9c-0.6,0-0.9-0.7-0.9-0.9v-3.8
		C19.2,48.9,19.4,48.1,20.1,48.1 M20,49.2v3.5c0,0.2,0.3,0.3,0.3,0v-3.4C20.2,49,20,49,20,49.2"/>
	<path class="st7" d="M26.1,50.1h0.7v-0.8c0-0.1-0.1-1.2-0.9-1.2c-0.8,0-0.9,1-0.9,1.2l0,0.6c0,0.9,0.6,1.4,0.8,1.5
		c0.1,0.1,0.3,0.4,0.3,0.6v0.7c0,0.2-0.3,0.3-0.3-0.1v-1H25c0,0,0,0.9,0,1.1c0,0.2,0.1,1.1,0.9,1.1c0.6,0,0.9-0.6,0.9-1.2V52
		c0-0.6-0.1-1.1-0.5-1.4c-0.1-0.1-0.5-0.5-0.5-0.9l0-0.4c0-0.4,0.3-0.3,0.3,0L26.1,50.1z"/>
	<path class="st6" d="M57.6,64.2c-1.4-0.8-3.2-1.4-3.7-1.5l0.6-1.5c1.6,0.4,2.6,0.8,3.8,1.4L57.6,64.2z M54.6,67.1
		c4.6-0.4,7-1.5,8.8-7l1.6,0.8c-1.9,5.3-4.3,7.4-9.9,8.1L54.6,67.1z M58.7,61.2c-0.8-0.4-1.9-0.9-3.8-1.4l0.7-1.5
		c2.2,0.6,3.3,1.1,3.8,1.3L58.7,61.2z M62.6,59.7c-0.1-0.3-0.2-1.2-0.6-2.1l1.1-0.2c0.2,0.6,0.4,1,0.6,2L62.6,59.7z M64.5,59.4
		c-0.1-0.2-0.3-1.1-0.6-1.9l1.1-0.2c0.4,0.8,0.6,1.7,0.7,1.9L64.5,59.4z"/>
	<path class="st6" d="M69.1,60.3l1.6-0.2l0.3,2l5.2-0.7c0,2.1-0.7,3.8-2.6,5.2l-1.1-1.1c1.1-0.7,1.5-1.2,1.8-2.4l-3,0.5l0.9,5.6
		l-1.6,0.2l-0.9-5.6l-2.5,0.4l-0.2-1.5l2.5-0.3L69.1,60.3z"/>
	<path class="st6" d="M77.1,67.7c2.1-2.4,2.6-6.4,2.7-9.2l1.7,0.2c-0.4,6.5-1.9,9-3,10.3L77.1,67.7z M85.9,58.5
		c0.4,4.3,1.9,7.5,3.2,9.3L87.5,69c-2.1-2.7-2.9-6.7-3.2-10.3L85.9,58.5z M89.5,58.7c0,0.8-0.6,1.4-1.4,1.4c-0.8,0-1.4-0.6-1.4-1.4
		c0-0.8,0.6-1.4,1.4-1.4C88.9,57.3,89.5,58,89.5,58.7 M87.5,58.7c0,0.3,0.3,0.6,0.6,0.6c0.3,0,0.6-0.3,0.6-0.6
		c0-0.3-0.3-0.6-0.6-0.6C87.8,58.1,87.5,58.4,87.5,58.7"/>
	<path class="st6" d="M94.8,62.1c-0.3-0.2-2-1.3-4-1.9l0.8-1.5c1.9,0.5,3.2,1.2,4.1,1.8L94.8,62.1z M91,67.1
		c4.2-0.3,7.5-1.6,9.4-7.7l1.7,0.8c-2,6.2-5.3,8.1-10.5,8.8L91,67.1z"/>
	<polygon class="st6" points="113.7,59 113.7,60.7 109.7,60.7 109.7,66.6 114.3,66.6 114.3,68.3 103.3,68.3 103.3,66.6 107.9,66.6 
		107.9,60.7 104,60.7 104,59 	"/>
	<path class="st6" d="M118.6,67.1c2.1-0.2,5.3-1.1,6.8-6l1.6,0.8c-1.3,3.6-3.4,7-10.2,7.2v-11h1.8V67.1z"/>
	<path class="st6" d="M127.9,63.8c0.4-0.5,1.9-2.3,2.6-3.1c0.7-0.9,1.2-1.5,2.1-1.5c0.5,0,1.2,0.3,2.2,1.3l5.4,5.6l-1.3,1.6
		l-5.3-5.8c-0.4-0.4-0.7-0.7-1-0.7c-0.3,0-0.4,0.2-0.6,0.4c-0.5,0.6-2.4,3.2-2.8,3.6L127.9,63.8z M137.3,61.1
		c-0.3-0.6-0.8-1.3-1.3-1.9l1-0.6c0.6,0.7,0.9,1.1,1.3,1.8L137.3,61.1z M138.9,60.1c-0.4-0.6-0.8-1.2-1.3-1.8l0.9-0.6
		c0.7,0.7,1.2,1.5,1.4,1.7L138.9,60.1z"/>
	<rect x="140.9" y="62.7" class="st6" width="11.5" height="1.8"/>
	<path class="st6" d="M158.7,62.3c0.5,0.2,1.7,0.7,2.9,1.7c1-1.3,1.3-2.6,1.4-3.1h-4.2c-1.5,2-2.9,2.8-3.5,3.1l-1.1-1.3
		c2.3-1.2,3.5-2.8,4.4-5.1l1.9,0.3c-0.2,0.5-0.3,0.8-0.6,1.3h5.3c-0.5,3-2,8.3-9.2,10l-1-1.5c0.8-0.1,3-0.5,5.3-2.4
		c-1.2-1-2.2-1.5-2.8-1.8L158.7,62.3z"/>
	<rect x="166.5" y="62.7" class="st6" width="11.5" height="1.8"/>
	<path class="st6" d="M186.9,57.9h1.8v2.4h2.2v1.6h-2.2V63c0,4.3-2.5,5.6-6.2,6.2l-0.7-1.6c3.7-0.5,5.1-1.7,5.1-4.6v-1.1h-3.8v3.2
		h-1.8v-3.2h-2.1v-1.6h2.1v-2.4h1.8v2.4h3.8V57.9z"/>
	<rect x="192.1" y="62.7" class="st6" width="11.5" height="1.8"/>
	<path class="st6" d="M207.7,58.3V62c2.6-0.5,4.3-1.3,5.8-2.2l0.2,0.5l0.2-0.1l0.7,1.1c-2.5,1.2-4.9,1.9-7,2.4v2.6
		c0,0.6,0.2,0.7,1,0.7h4.1c0.9,0,1.9-0.1,2.7-0.2l0.1,1.8c-0.4,0.1-1.1,0.2-2.7,0.2h-4.5c-1.9,0-2.5-0.7-2.5-1.9v-8.6H207.7z
		 M214.1,60c-0.4-1.1-0.5-1.5-0.8-2.1l1-0.3c0.4,0.8,0.7,1.5,0.9,2L214.1,60z M215.9,59.7c-0.2-0.5-0.4-1.2-0.8-2l1-0.3
		c0.4,0.7,0.7,1.6,0.8,2L215.9,59.7z"/>
	<path class="st6" d="M217.8,67.8c2.9-1.1,5.9-3.8,7.3-7.5h-6.6v-1.7h8.9c-0.2,0.8-0.6,2.8-2.4,5.4c1.6,1.2,3,2.4,4.3,3.8l-1.5,1.4
		c-1.2-1.4-2.5-2.7-3.9-3.9c-1.4,1.7-3.2,3.1-5.2,3.9L217.8,67.8z"/>
	<path class="st6" d="M230.9,67.5c1.5-1.5,1.8-3.4,2-4.7l1.7,0.2c-0.4,3.7-1.6,5-2.3,5.7L230.9,67.5z M237.6,58v2h4.5v1.6h-4.5v7.5
		h-1.8v-7.5h-4.5V60h4.5v-2H237.6z M240.5,62.8c0.4,2.5,0.9,3.6,1.9,4.7l-1.5,1.1c-1-1.3-1.8-2.7-2.1-5.7L240.5,62.8z"/>
	<rect x="243.4" y="62.7" class="st6" width="11.5" height="1.8"/>
	<path class="st6" d="M259.3,61.6c0,1.5-0.1,2.9-0.4,4.1c-0.3,1.5-1,2.8-2,3.7l-1.4-1.2c0.7-0.7,2.1-2,2.1-6.4v-3.5h1.8V61.6z
		 M262.9,67c0.8-0.3,1.6-0.7,2.3-1.9c0.3-0.5,0.8-1.4,1.1-2.9l1.6,0.7c-0.7,3.6-3.1,6.1-6.7,6.2V58h1.7V67z"/>
	<path class="st6" d="M280.3,61.6v1.6h-4.2l0,0.3c-0.3,4.3-3,5.2-5.5,5.7l-0.7-1.6c2.6-0.4,4.3-1,4.4-4.1l0-0.3h-4.9v-1.6H280.3z
		 M278.2,58.3c0.1,0.5,0.2,0.7,0.2,1.2v0.4h-8.1v-1.6H278.2z M278.7,59.5c-0.1-0.6-0.1-1.1-0.4-2l1-0.2c0.2,0.9,0.3,1.1,0.4,1.9
		L278.7,59.5z M280.2,59.3c-0.2-1.2-0.3-1.6-0.5-2l1-0.2c0.2,0.7,0.3,1.1,0.5,2L280.2,59.3z"/>
	<path class="st6" d="M287.8,69.4h-1.6V65c-1.7,1-2.8,1.4-3.7,1.7l-0.7-1.4c4.5-1.4,6.8-4,7.7-5.2l1.3,1.1c-0.4,0.4-1.4,1.5-3,2.7
		V69.4z"/>
	<path class="st6" d="M296.9,62.1c-0.3-0.2-2-1.3-4-1.9l0.8-1.5c1.9,0.5,3.2,1.2,4.1,1.8L296.9,62.1z M293,67.1
		c4.2-0.3,7.5-1.6,9.4-7.7l1.7,0.8c-2,6.2-5.3,8.1-10.5,8.8L293,67.1z"/>
	<path class="st6" d="M305.2,62.7c2.2-1.1,3.4-3,4.1-4.9l1.9,0.3c-0.2,0.6-0.4,1.1-0.7,1.6h3.3l0.1,0.4l2-0.4
		c-0.3,2.6-1.2,4.9-3.1,6.8c-1.7,1.7-3.9,2.4-6.1,2.7l-0.7-1.6c4-0.5,6.6-2,7.8-6.3h-4.4c-1.2,1.5-2.1,2.1-3.1,2.7L305.2,62.7z
		 M314.2,59.6c-0.3-1.3-0.4-1.5-0.6-1.9l1.1-0.2c0.1,0.3,0.3,0.7,0.7,1.9L314.2,59.6z M315.9,59.3c-0.1-0.4-0.3-1.2-0.6-1.9l1.1-0.2
		c0.4,0.8,0.6,1.6,0.7,1.8L315.9,59.3z"/>
	<path class="st6" d="M318,67.8c2.9-1.1,5.9-3.8,7.3-7.5h-6.6v-1.7h8.9c-0.2,0.8-0.6,2.8-2.4,5.4c1.6,1.2,3,2.4,4.3,3.8l-1.5,1.4
		c-1.2-1.4-2.5-2.7-3.9-3.9c-1.4,1.7-3.2,3.1-5.2,3.9L318,67.8z"/>
	<path class="st6" d="M337.1,60.8c-0.3,0.8-0.6,1.1-0.8,1.5l-1.4-0.9l0.1-0.1h-1.1v0.8c0.3,0.6,1,1.7,1.8,2.4l-0.9,1.3
		c-0.4-0.5-0.6-1-0.9-1.6v5.5h-1.5v-5.4c-0.4,1.4-0.8,2.1-1.4,2.9l-0.6-2c0.9-1.2,1.4-2.5,1.8-3.9h-1.6v-1.5h1.7v-2.3h1.5v2.3h1.4
		v1.1c0.6-1,0.9-2.2,1-3l1.6,0.2c-0.1,0.4-0.1,0.7-0.3,1.3h0.8v-1.8h1.5v1.8h2.7v1.5H340v1.6h2.9v1.5h-2.4c0.8,1.5,1.6,2.3,2.7,3.1
		l-0.7,1.8c-0.4-0.3-1.4-1.1-2.4-3.3v4.2h-1.5v-4.2c-0.6,1.2-1.3,2.1-2.7,3.2l-1-1.5c1.1-0.7,2.3-1.7,3.2-3.4h-2.6v-1.5h3.1v-1.6
		H337.1z"/>
	<path class="st6" d="M344.1,67.7c0.8-0.1,1.5-0.1,2.6-0.3v-3.5h-2.3v-1.6h6.2v1.6h-2.2v3.3c1.1-0.2,2-0.3,2.7-0.4l0,1.6
		c-1.8,0.4-4.3,0.7-6.7,1L344.1,67.7z M354.8,59.4h1.5V61h-3.8c0.2,4.5,1.3,6.7,1.9,6.7c0.5,0,0.8-1.1,1-1.9l1.1,1.3
		c-0.1,0.6-0.6,2.6-1.9,2.6c-0.7,0-3.4-0.6-3.7-8.8h-6.8v-1.6h6.7c0-0.4,0-1.7,0-2h1.7c0,0.2,0,1.1,0,2h1.8
		c-0.5-0.5-0.9-0.9-1.5-1.2l1.2-0.8c0.6,0.4,1.2,0.8,1.7,1.4L354.8,59.4z"/>
	<path class="st6" d="M360.4,61.7c-1,0.6-1.7,0.9-2.1,1.1l-0.8-1.6c3.2-1.2,4.7-2.7,5.4-3.7h1.8c0.7,0.9,2,2.3,5.4,3.7l-0.8,1.6
		c-0.4-0.2-1.1-0.5-2.1-1.1v0.7h-6.8V61.7z M367.9,69.8c-0.1-0.3-0.2-0.5-0.5-0.9c-1.7,0.2-3.8,0.5-9.1,0.6l-0.2-1.6
		c0.2,0,1.6,0,1.9,0c0.4-0.7,0.8-1.8,1.1-2.7H358v-1.5h11.6v1.5H363c-0.5,1.2-0.8,1.9-1.2,2.7c0.4,0,2.6-0.1,4.7-0.2
		c-0.3-0.4-0.6-0.8-1.3-1.6l1.4-0.7c1.5,1.5,2.6,3.3,2.9,3.7L367.9,69.8z M366.2,60.9c-1.4-1-2.1-1.8-2.4-2.2
		c-0.6,0.9-1.6,1.6-2.3,2.2H366.2z"/>
	<path class="st6" d="M374.6,69.7h-1.6V65c-0.7,0.6-1.1,0.9-1.5,1.2l-0.5-1.8c1.5-0.9,2.8-2.3,3.3-3.5h-3.1v-1.5h1.8v-1.9h1.6v1.9
		h1.4v1.5c-0.5,0.9-0.8,1.5-1.2,2c0.8,0.9,1.4,1.3,1.8,1.5l-0.8,1.5c-0.4-0.3-0.8-0.8-1.3-1.3V69.7z M378.8,57.4h1.7v3.5h2.7v1.7
		h-2.7v5.1h2.9v1.6h-7.7v-1.6h3.1v-5.1h-2.6v-1.7h2.6V57.4z"/>
	<path class="st7" d="M54.3,80.7h6.6V102c0,4.6-2.7,5.2-6.2,5.2c-1,0-2-0.1-3-0.2v-4.5c1.7,0,2.5-0.2,2.5-1.4V80.7z M54.3,74.3h6.6
		v4.9h-6.6V74.3z"/>
	<path class="st7" d="M73.3,100.7c-0.2-0.7-0.3-1.4-0.4-2.3h-0.1c-0.7,1.8-2.5,2.8-4.5,2.8c-4,0-5.5-2.4-5.5-5.9
		c0-3.7,1.3-5.4,5.5-6.4l2.6-0.6c1.4-0.3,2-1,2-2.2c0-1.2-0.6-1.8-1.7-1.8c-1.3,0-1.8,0.6-1.9,2.7h-5.8c0-5.7,4.6-6.7,7.6-6.7
		c4.7,0,7.9,1.2,7.9,6.4v9.7c0,1.8,0.1,3.3,0.6,4.3H73.3z M72.9,93.4V91h-0.1c-0.4,0.5-1.3,0.5-2.3,0.9c-1,0.5-1.4,1.3-1.4,2.6
		c0,1.3,0.6,2.2,1.6,2.2C72.3,96.7,72.9,95.6,72.9,93.4"/>
	<path class="st7" d="M81.9,80.7h6.4v2.7h0.1c0.8-2.2,2.4-3.2,4.5-3.2c4.5,0,6,3.5,6,10.9c0,7.6-2.4,10.1-6.1,10.1
		c-1.9,0-3.5-0.7-4.2-2.8h-0.1v8.7h-6.6V80.7z M90.3,96.2c1.5,0,1.9-1.3,1.9-5.6c0-4.3-0.3-5.5-1.9-5.5c-1.5,0-1.8,1.3-1.8,5.5
		C88.5,95,88.8,96.2,90.3,96.2"/>
	<path class="st7" d="M110.7,100.7c-0.2-0.7-0.3-1.4-0.4-2.3h-0.1c-0.7,1.8-2.5,2.8-4.5,2.8c-4,0-5.5-2.4-5.5-5.9
		c0-3.7,1.3-5.4,5.5-6.4l2.6-0.6c1.4-0.3,2-1,2-2.2c0-1.2-0.6-1.8-1.7-1.8c-1.3,0-1.8,0.6-1.9,2.7H101c0-5.7,4.6-6.7,7.6-6.7
		c4.7,0,7.9,1.2,7.9,6.4v9.7c0,1.8,0.1,3.3,0.6,4.3H110.7z M110.3,93.4V91h-0.1c-0.4,0.5-1.3,0.5-2.3,0.9c-1,0.5-1.4,1.3-1.4,2.6
		c0,1.3,0.6,2.2,1.6,2.2C109.7,96.7,110.3,95.6,110.3,93.4"/>
	<path class="st7" d="M119.2,80.7h6.4v2.4h0.1c0.8-2,2.5-3,4.8-3c2.9,0,5.2,1.1,5.2,5.4v15.1h-6.6V87.5c0-1.7-0.4-2.4-1.6-2.4
		c-1.2,0-1.6,0.7-1.6,2.4v13.2h-6.6V80.7z"/>
	<path class="st7" d="M154.4,91.8v2.6c0,2.1,0.9,2.7,1.8,2.7c1.2,0,1.9-0.7,1.9-3.5h6c-0.1,4.8-2.3,7.5-7.8,7.5
		c-6.4,0-8.5-2.9-8.5-10.5c0-7.6,2.5-10.5,8.5-10.5c5.3,0,8,2.4,8,9.6v2H154.4z M158.1,87.3c0-2.1-0.4-3.1-1.8-3.1
		c-1.4,0-1.8,1-1.8,3.1v0.9h3.7V87.3z"/>
	<rect x="166.3" y="74.3" class="st7" width="6.6" height="26.3"/>
	<path class="st7" d="M181.7,91.8v2.6c0,2.1,0.9,2.7,1.8,2.7c1.2,0,1.9-0.7,1.9-3.5h6c-0.1,4.8-2.3,7.5-7.8,7.5
		c-6.4,0-8.5-2.9-8.5-10.5c0-7.6,2.5-10.5,8.5-10.5c5.3,0,8,2.4,8,9.6v2H181.7z M185.4,87.3c0-2.1-0.4-3.1-1.8-3.1
		c-1.4,0-1.8,1-1.8,3.1v0.9h3.7V87.3z"/>
	<polygon class="st7" points="191.8,80.7 198.7,80.7 200.5,95.1 200.6,95.1 202.5,80.7 209.3,80.7 204.5,100.7 196.6,100.7 	"/>
	<path class="st7" d="M219.8,100.7c-0.2-0.7-0.3-1.4-0.4-2.3h-0.1c-0.7,1.8-2.5,2.8-4.5,2.8c-4,0-5.5-2.4-5.5-5.9
		c0-3.7,1.3-5.4,5.5-6.4l2.6-0.6c1.4-0.3,2-1,2-2.2c0-1.2-0.6-1.8-1.7-1.8c-1.3,0-1.8,0.6-1.9,2.7h-5.8c0-5.7,4.6-6.7,7.6-6.7
		c4.6,0,7.9,1.2,7.9,6.4v9.7c0,1.8,0.1,3.3,0.6,4.3H219.8z M219.4,93.4V91h-0.1c-0.4,0.5-1.3,0.5-2.3,0.9c-1,0.5-1.4,1.3-1.4,2.6
		c0,1.3,0.6,2.2,1.6,2.2C218.8,96.7,219.4,95.6,219.4,93.4"/>
	<path class="st7" d="M227.2,80.7h2.2v-5.9h6.6v5.9h2.6v4.5h-2.6v9.5c0,1.1,0.5,1.5,1.6,1.5h1v4.4c-1.2,0.1-2.5,0.2-3.6,0.2
		c-4.1,0-5.6-0.7-5.6-5.1V85.2h-2.2V80.7z"/>
	<path class="st7" d="M248.2,101.2c-7.8,0-8.5-4.8-8.5-10.5c0-5.2,1-10.5,8.5-10.5c7.8,0,8.5,4.8,8.5,10.5
		C256.6,95.9,255.6,101.2,248.2,101.2 M248.2,96.9c1.5,0,1.8-1.2,1.8-6.2c0-5.1-0.3-6.2-1.8-6.2c-1.5,0-1.8,1.2-1.8,6.2
		C246.3,95.7,246.7,96.9,248.2,96.9"/>
	<path class="st7" d="M258.6,80.7h6.4v3.2h0.1c0.7-2.4,2.5-3.7,4.5-3.7h1.1v6.2c-0.6-0.1-1.1-0.1-1.7-0.1c-2.4,0-3.7,0.9-3.7,3.5
		v10.9h-6.6V80.7z"/>
	<path class="st7" d="M286.9,94.5c0,0.8,0.1,1.5,0.5,2c0.3,0.4,0.8,0.7,1.4,0.7c1,0,1.9-0.6,1.9-1.7c0-3.5-9.6-1.4-9.6-9
		c0-3.5,2.5-6.2,7.9-6.2c5,0,7.5,2.1,7.5,6.3h-5.8c0-1.7-0.7-2.2-1.8-2.2c-1,0-1.7,0.6-1.7,1.6c0,3.3,9.6,1.1,9.6,8.7
		c0,3.9-3,6.7-8,6.7c-5.6,0-7.8-2.4-7.8-6.7H286.9z"/>
	<path class="st7" d="M304.9,91.8v2.6c0,2.1,0.9,2.7,1.8,2.7c1.2,0,1.9-0.7,1.9-3.5h6c-0.1,4.8-2.3,7.5-7.8,7.5
		c-6.4,0-8.5-2.9-8.5-10.5c0-7.6,2.5-10.5,8.5-10.5c5.3,0,8,2.4,8,9.6v2H304.9z M308.6,87.3c0-2.1-0.4-3.1-1.8-3.1
		c-1.4,0-1.8,1-1.8,3.1v0.9h3.7V87.3z"/>
	<path class="st7" d="M316.7,80.7h6.4v3.2h0.1c0.7-2.4,2.5-3.7,4.5-3.7h1.1v6.2c-0.6-0.1-1.1-0.1-1.7-0.1c-2.4,0-3.7,0.9-3.7,3.5
		v10.9h-6.6V80.7z"/>
	<polygon class="st7" points="329.3,80.7 336.1,80.7 338,95.1 338.1,95.1 339.9,80.7 346.8,80.7 341.9,100.7 334.1,100.7 	"/>
	<path class="st7" d="M348.2,74.3h6.6v4.9h-6.6V74.3z M348.2,80.7h6.6v20h-6.6V80.7z"/>
	<path class="st7" d="M367.5,88.5c0-1.6-0.1-2.6-0.4-3.2c-0.3-0.6-0.8-0.8-1.5-0.8c-1.5,0-2,1.3-2,6.2c0,4.9,0.4,6.2,2,6.2
		c1.2,0,1.9-0.8,1.9-3.3v-1.3h6c0,3.1-0.5,5.3-1.8,6.8c-1.3,1.4-3.4,2.1-6.1,2.1c-5.1,0-8.6-1.5-8.6-10.1c0-9.4,3.9-10.8,8.9-10.8
		c5.9,0,7.6,3.4,7.6,8.3H367.5z"/>
	<path class="st7" d="M381.5,91.8v2.6c0,2.1,0.9,2.7,1.8,2.7c1.2,0,1.9-0.7,1.9-3.5h6c-0.1,4.8-2.3,7.5-7.8,7.5
		c-6.4,0-8.5-2.9-8.5-10.5c0-7.6,2.5-10.5,8.5-10.5c5.3,0,8,2.4,8,9.6v2H381.5z M385.1,87.3c0-2.1-0.4-3.1-1.8-3.1
		c-1.4,0-1.8,1-1.8,3.1v0.9h3.7V87.3z"/>
</g>
</svg>
